<?xml version="1.0" encoding="UTF-8" standalone="no"?>
<!DOCTYPE svg PUBLIC "-//W3C//DTD SVG 1.1//EN" "http://www.w3.org/Graphics/SVG/1.1/DTD/svg11.dtd">
<svg width="100%" height="100%" viewBox="0 0 1384 690" version="1.1" xmlns="http://www.w3.org/2000/svg" xmlns:xlink="http://www.w3.org/1999/xlink" xml:space="preserve" xmlns:serif="http://www.serif.com/" style="fill-rule:evenodd;clip-rule:evenodd;stroke-linejoin:round;stroke-miterlimit:2;">
    <g id="farm" transform="matrix(0.535035,0,0,0.548902,412.083,62.5088)">
        <rect x="-770.197" y="-113.88" width="2586.75" height="1257.06" style="fill:none;"/>
        <clipPath id="_clip1">
            <rect x="-770.197" y="-113.88" width="2586.75" height="1257.06"/>
        </clipPath>
        <g clip-path="url(#_clip1)">
            <g id="background" transform="matrix(1.86949,0,0,9.23952,-756.736,-5236.14)">
                <rect x="-7.201" y="554.748" width="1383.67" height="136.052" style="fill:rgb(227,218,166);"/>
            </g>
            <g id="hills" transform="matrix(1.86904,0,0,1.82182,-746.615,-115.63)">
                <g transform="matrix(0.902533,0,0,1.08256,138.561,-55.2217)">
                    <ellipse cx="811.161" cy="562.902" rx="610.466" ry="105.987" style="fill:rgb(190,218,78);"/>
                </g>
                <g transform="matrix(0.420764,0,0,1.19865,-177.766,-110.919)">
                    <ellipse cx="811.161" cy="562.902" rx="610.466" ry="105.987" style="fill:rgb(248,233,200);"/>
                </g>
                <g transform="matrix(0.420764,0,0,0.966535,-177.766,44.3428)">
                    <ellipse cx="811.161" cy="562.902" rx="610.466" ry="105.987" style="fill:rgb(255,227,112);"/>
                </g>
            </g>
            <g id="barn" transform="matrix(1.86904,0,0,1.82182,-770.197,-113.88)">
                <g id="_back" transform="matrix(1,0,0,1,221.811,-0.597002)">
                    <rect x="694.023" y="388.649" width="249.135" height="164.729" style="fill:rgb(202,55,33);"/>
                    <g transform="matrix(1.17373,0,0,0.0792178,-142.205,344.878)">
                        <rect x="694.023" y="388.649" width="249.135" height="164.729" style="fill:rgb(202,55,33);"/>
                    </g>
                    <g>
                        <path d="M672.392,375.666L701.99,305.527L819.114,235.243L937.484,305.155L969.472,376.503L672.392,375.666Z" style="fill:rgb(103,94,68);"/>
                        <g transform="matrix(0.960321,0,0,0.935938,31.8294,20.8944)">
                            <path d="M672.392,375.666L701.99,305.527L819.114,235.243L937.484,305.155L969.472,376.503L672.392,375.666Z" style="fill:rgb(202,55,33);"/>
                        </g>
                        <g transform="matrix(1.04236,0,0,1.10709,-35.8127,-29.8508)">
                            <path d="M685.343,361.493L953.817,360.725L951.786,355.94L687.871,357.31L685.343,361.493Z" style="fill:rgb(225,63,44);"/>
                            <path d="M690.273,352.026L949.071,351.099L947.046,345.63L692.52,347.241L690.273,352.026Z" style="fill:rgb(225,63,44);"/>
                            <g transform="matrix(0.950805,0,0,1,36.3119,-11.2578)">
                                <path d="M690.273,352.026L949.071,351.099L947.046,345.63L692.52,347.241L690.273,352.026Z" style="fill:rgb(225,63,44);"/>
                            </g>
                            <g transform="matrix(0.883226,0,0,1,95.3739,-22.7318)">
                                <path d="M690.273,352.026L949.071,351.099L947.046,345.63L692.52,347.241L690.273,352.026Z" style="fill:rgb(225,63,44);"/>
                            </g>
                            <g transform="matrix(0.849284,0,0,1,123.649,-34.2357)">
                                <path d="M690.273,352.026L949.071,351.099L947.046,345.63L692.52,347.241L690.273,352.026Z" style="fill:rgb(225,63,44);"/>
                            </g>
                            <g transform="matrix(0.736955,0,0,1,213.197,-48.1367)">
                                <path d="M690.273,352.026L949.071,351.099L947.046,345.63L692.52,347.241L690.273,352.026Z" style="fill:rgb(225,63,44);"/>
                            </g>
                            <g transform="matrix(0.580919,0,0,1,343.62,-58.9531)">
                                <path d="M690.273,352.026L949.071,351.099L947.046,345.63L692.52,347.241L690.273,352.026Z" style="fill:rgb(225,63,44);"/>
                            </g>
                            <g transform="matrix(0.432756,0,0,1,464.107,-69.2852)">
                                <path d="M690.273,352.026L949.071,351.099L947.046,345.63L692.52,347.241L690.273,352.026Z" style="fill:rgb(225,63,44);"/>
                            </g>
                            <g transform="matrix(0.310894,0,0,1,563.866,-77.4987)">
                                <path d="M690.273,352.026L949.071,351.099L947.046,345.63L692.52,347.241L690.273,352.026Z" style="fill:rgb(225,63,44);"/>
                            </g>
                            <g transform="matrix(0.209315,0,0,1,648.503,-86.0586)">
                                <path d="M690.273,352.026L949.071,351.099L947.046,345.63L692.52,347.241L690.273,352.026Z" style="fill:rgb(225,63,44);"/>
                            </g>
                            <g transform="matrix(0.0782624,0,0,1,754.241,-95.2422)">
                                <path d="M690.273,352.026L949.071,351.099L947.046,345.63L692.52,347.241L690.273,352.026Z" style="fill:rgb(225,63,44);"/>
                            </g>
                        </g>
                        <g transform="matrix(0.960812,0,0,1.10709,27.3686,112.433)">
                            <g transform="matrix(0.953889,0,0,1,43.9817,0)">
                                <path d="M685.343,361.493L953.817,360.725L951.786,355.94L687.871,357.31L685.343,361.493Z" style="fill:rgb(225,63,44);"/>
                            </g>
                            <g transform="matrix(0.970859,0,0,1,27.6569,0)">
                                <path d="M690.273,352.026L949.071,351.099L947.046,345.63L692.52,347.241L690.273,352.026Z" style="fill:rgb(225,63,44);"/>
                            </g>
                            <g transform="matrix(0.983505,0,0,1,18.009,-11.2578)">
                                <path d="M690.273,352.026L949.071,351.099L947.046,345.63L692.52,347.241L690.273,352.026Z" style="fill:rgb(225,63,44);"/>
                            </g>
                            <g transform="matrix(1,0,0,1,3.7513,-22.7318)">
                                <path d="M690.273,352.026L949.071,351.099L947.046,345.63L692.52,347.241L690.273,352.026Z" style="fill:rgb(225,63,44);"/>
                            </g>
                            <g transform="matrix(0.978541,0,0,1,20.8323,-34.2357)">
                                <path d="M690.273,352.026L949.071,351.099L947.046,345.63L692.52,347.241L690.273,352.026Z" style="fill:rgb(225,63,44);"/>
                            </g>
                            <g transform="matrix(0.975258,0,0,1,22.8481,-48.1367)">
                                <path d="M690.273,352.026L949.071,351.099L947.046,345.63L692.52,347.241L690.273,352.026Z" style="fill:rgb(225,63,44);"/>
                            </g>
                            <g transform="matrix(0.978557,0,0,1,21.5583,-58.9531)">
                                <path d="M690.273,352.026L949.071,351.099L947.046,345.63L692.52,347.241L690.273,352.026Z" style="fill:rgb(225,63,44);"/>
                            </g>
                            <g transform="matrix(0.984055,0,0,1,16.4872,-69.2852)">
                                <path d="M690.273,352.026L949.071,351.099L947.046,345.63L692.52,347.241L690.273,352.026Z" style="fill:rgb(225,63,44);"/>
                            </g>
                            <g transform="matrix(0.973058,0,0,1,23.6828,-77.4987)">
                                <path d="M690.273,352.026L949.071,351.099L947.046,345.63L692.52,347.241L690.273,352.026Z" style="fill:rgb(225,63,44);"/>
                            </g>
                            <g transform="matrix(0.97187,0,0,1,24.6443,-86.0586)">
                                <path d="M690.273,352.026L949.071,351.099L947.046,345.63L692.52,347.241L690.273,352.026Z" style="fill:rgb(225,63,44);"/>
                            </g>
                            <g transform="matrix(0.973608,0,0,1,22.9175,-95.2422)">
                                <path d="M690.273,352.026L949.071,351.099L947.046,345.63L692.52,347.241L690.273,352.026Z" style="fill:rgb(225,63,44);"/>
                            </g>
                        </g>
                        <g transform="matrix(0.943265,0,0,1.10709,45.7642,238.847)">
                            <path d="M685.343,361.493L953.817,360.725L951.786,355.94L687.871,357.31L685.343,361.493Z" style="fill:rgb(225,63,44);"/>
                            <path d="M690.273,352.026L949.071,351.099L947.046,345.63L692.52,347.241L690.273,352.026Z" style="fill:rgb(225,63,44);"/>
                            <g transform="matrix(1,0,0,1,2.35417,-11.2578)">
                                <path d="M690.273,352.026L949.071,351.099L947.046,345.63L692.52,347.241L690.273,352.026Z" style="fill:rgb(225,63,44);"/>
                            </g>
                            <g transform="matrix(1,0,0,1,3.7513,-22.7318)">
                                <path d="M690.273,352.026L949.071,351.099L947.046,345.63L692.52,347.241L690.273,352.026Z" style="fill:rgb(225,63,44);"/>
                            </g>
                            <g transform="matrix(1,0,0,1,0.466146,-34.2357)">
                                <path d="M690.273,352.026L949.071,351.099L947.046,345.63L692.52,347.241L690.273,352.026Z" style="fill:rgb(225,63,44);"/>
                            </g>
                            <g transform="matrix(1,0,0,1,-0.634115,-48.1367)">
                                <path d="M690.273,352.026L949.071,351.099L947.046,345.63L692.52,347.241L690.273,352.026Z" style="fill:rgb(225,63,44);"/>
                            </g>
                            <g transform="matrix(1,0,0,1,1.20703,-58.9531)">
                                <path d="M690.273,352.026L949.071,351.099L947.046,345.63L692.52,347.241L690.273,352.026Z" style="fill:rgb(225,63,44);"/>
                            </g>
                            <g transform="matrix(1,0,0,1,1.35417,-69.2852)">
                                <path d="M690.273,352.026L949.071,351.099L947.046,345.63L692.52,347.241L690.273,352.026Z" style="fill:rgb(225,63,44);"/>
                            </g>
                            <g transform="matrix(1,0,0,1,-1.88672,-77.4987)">
                                <path d="M690.273,352.026L949.071,351.099L947.046,345.63L692.52,347.241L690.273,352.026Z" style="fill:rgb(225,63,44);"/>
                            </g>
                            <g transform="matrix(1,0,0,1,-2.05339,-86.0586)">
                                <path d="M690.273,352.026L949.071,351.099L947.046,345.63L692.52,347.241L690.273,352.026Z" style="fill:rgb(225,63,44);"/>
                            </g>
                            <g transform="matrix(1,0,0,1,-2.13021,-95.2422)">
                                <path d="M690.273,352.026L949.071,351.099L947.046,345.63L692.52,347.241L690.273,352.026Z" style="fill:rgb(225,63,44);"/>
                            </g>
                        </g>
                        <g>
                            <rect x="769.009" y="302.756" width="98.1" height="46.523" style="fill:rgb(245,247,242);"/>
                            <g transform="matrix(0.199466,0,0,0.443773,619.81,192.327)">
                                <rect x="769.009" y="302.756" width="98.1" height="46.523" style="fill:rgb(110,92,92);"/>
                            </g>
                            <g transform="matrix(0.199466,0,0,0.443773,643.712,192.163)">
                                <rect x="769.009" y="302.756" width="98.1" height="46.523" style="fill:rgb(110,92,92);"/>
                            </g>
                            <g transform="matrix(0.199466,0,0,0.443773,667.643,192.091)">
                                <rect x="769.009" y="302.756" width="98.1" height="46.523" style="fill:rgb(110,92,92);"/>
                            </g>
                            <g transform="matrix(0.199466,0,0,0.443773,690.187,192.149)">
                                <rect x="769.009" y="302.756" width="98.1" height="46.523" style="fill:rgb(110,92,92);"/>
                            </g>
                            <g transform="matrix(0.199466,0,0,0.443773,689.53,168.89)">
                                <rect x="769.009" y="302.756" width="98.1" height="46.523" style="fill:rgb(110,92,92);"/>
                            </g>
                            <g transform="matrix(0.199466,0,0,0.443773,667.388,168.83)">
                                <rect x="769.009" y="302.756" width="98.1" height="46.523" style="fill:rgb(110,92,92);"/>
                            </g>
                            <g transform="matrix(0.199466,0,0,0.443773,643.449,169.315)">
                                <rect x="769.009" y="302.756" width="98.1" height="46.523" style="fill:rgb(110,92,92);"/>
                            </g>
                            <g transform="matrix(0.199466,0,0,0.443773,620.053,169.185)">
                                <rect x="769.009" y="302.756" width="98.1" height="46.523" style="fill:rgb(110,92,92);"/>
                            </g>
                            <path d="M706.512,312.558L751.055,369.199L757.605,369.6L758.315,275.515L753.71,278.63L753.772,365.847L709.29,308.987L706.512,312.558Z" style="fill:rgb(247,246,244);"/>
                            <g transform="matrix(-1.0286,0,0,1.03489,1658.12,-10.5253)">
                                <path d="M706.512,312.558L751.055,369.199L757.605,369.6L758.315,275.515L753.71,278.63L753.772,365.847L709.29,308.987L706.512,312.558Z" style="fill:rgb(247,246,244);"/>
                            </g>
                        </g>
                    </g>
                    <g id="_doorright" transform="matrix(-1,7.67615e-17,-7.67615e-17,-1,1636.68,995.412)">
                        <g id="_open" transform="matrix(0.440889,0,0,0.677438,457.549,178.499)">
                            <rect x="694.023" y="388.649" width="249.135" height="164.729"/>
                        </g>
                        <g id="_closed">
                            <g id="_" transform="matrix(0.193994,0,0,0.682054,628.483,176.361)">
                                <rect x="694.023" y="388.649" width="249.135" height="164.729" style="fill:rgb(247,246,244);"/>
                            </g>
                            <g id="_1" serif:id="_" transform="matrix(0.152695,0,0,0.631086,661.56,200.724)">
                                <rect x="694.023" y="388.649" width="249.135" height="164.729" style="fill:rgb(225,63,44);"/>
                            </g>
                            <path id="_2" serif:id="_" d="M770.654,549.954L805.575,451.077L806.136,444.351L802.905,446.622L768.26,546.969L766.364,550.751L770.654,549.954Z" style="fill:rgb(247,246,244);"/>
                            <g id="_3" serif:id="_" transform="matrix(-1.08437,0,0,1,1640.1,-0.0507812)">
                                <path d="M770.654,549.954L805.575,451.077L806.136,444.351L802.905,446.622L768.26,546.969L766.364,550.751L770.654,549.954Z" style="fill:rgb(247,246,244);"/>
                            </g>
                        </g>
                    </g>
                </g>
                <g id="_front" transform="matrix(1,0,0,1,12.6172,-0.960934)">
                    <g id="_building">
                        <rect id="_frontb" x="694.023" y="388.649" width="249.135" height="164.729" style="fill:rgb(202,55,33);"/>
                        <g id="_awning" transform="matrix(1.17373,0,0,0.0792178,-142.205,344.878)">
                            <rect x="694.023" y="388.649" width="249.135" height="164.729" style="fill:rgb(202,55,33);"/>
                        </g>
                    </g>
                    <g id="_siding">
                        <g>
                            <path d="M672.392,375.666L701.99,305.527L819.114,235.243L937.484,305.155L969.472,376.503L672.392,375.666Z" style="fill:rgb(102,94,67);"/>
                            <g transform="matrix(0.960321,0,0,0.935938,31.8294,20.8944)">
                                <path d="M672.392,375.666L701.99,305.527L819.114,235.243L937.484,305.155L969.472,376.503L672.392,375.666Z" style="fill:rgb(202,55,33);"/>
                            </g>
                            <g transform="matrix(1.04236,0,0,1.10709,-35.8127,-29.8508)">
                                <path d="M685.343,361.493L953.817,360.725L951.786,355.94L687.871,357.31L685.343,361.493Z" style="fill:rgb(225,63,44);"/>
                                <path d="M690.273,352.026L949.071,351.099L947.046,345.63L692.52,347.241L690.273,352.026Z" style="fill:rgb(225,63,44);"/>
                                <g transform="matrix(0.950805,0,0,1,36.3119,-11.2578)">
                                    <path d="M690.273,352.026L949.071,351.099L947.046,345.63L692.52,347.241L690.273,352.026Z" style="fill:rgb(225,63,44);"/>
                                </g>
                                <g transform="matrix(0.883226,0,0,1,95.3739,-22.7318)">
                                    <path d="M690.273,352.026L949.071,351.099L947.046,345.63L692.52,347.241L690.273,352.026Z" style="fill:rgb(225,63,44);"/>
                                </g>
                                <g transform="matrix(0.849284,0,0,1,123.649,-34.2357)">
                                    <path d="M690.273,352.026L949.071,351.099L947.046,345.63L692.52,347.241L690.273,352.026Z" style="fill:rgb(225,63,44);"/>
                                </g>
                                <g transform="matrix(0.736955,0,0,1,213.197,-48.1367)">
                                    <path d="M690.273,352.026L949.071,351.099L947.046,345.63L692.52,347.241L690.273,352.026Z" style="fill:rgb(225,63,44);"/>
                                </g>
                                <g transform="matrix(0.580919,0,0,1,343.62,-58.9531)">
                                    <path d="M690.273,352.026L949.071,351.099L947.046,345.63L692.52,347.241L690.273,352.026Z" style="fill:rgb(225,63,44);"/>
                                </g>
                                <g transform="matrix(0.432756,0,0,1,464.107,-69.2852)">
                                    <path d="M690.273,352.026L949.071,351.099L947.046,345.63L692.52,347.241L690.273,352.026Z" style="fill:rgb(225,63,44);"/>
                                </g>
                                <g transform="matrix(0.310894,0,0,1,563.866,-77.4987)">
                                    <path d="M690.273,352.026L949.071,351.099L947.046,345.63L692.52,347.241L690.273,352.026Z" style="fill:rgb(225,63,44);"/>
                                </g>
                                <g transform="matrix(0.209315,0,0,1,648.503,-86.0586)">
                                    <path d="M690.273,352.026L949.071,351.099L947.046,345.63L692.52,347.241L690.273,352.026Z" style="fill:rgb(225,63,44);"/>
                                </g>
                                <g transform="matrix(0.0782624,0,0,1,754.241,-95.2422)">
                                    <path d="M690.273,352.026L949.071,351.099L947.046,345.63L692.52,347.241L690.273,352.026Z" style="fill:rgb(225,63,44);"/>
                                </g>
                            </g>
                        </g>
                        <g>
                            <g transform="matrix(0.960812,0,0,1.10709,27.3686,112.433)">
                                <g transform="matrix(0.953889,0,0,1,43.9817,0)">
                                    <path d="M685.343,361.493L953.817,360.725L951.786,355.94L687.871,357.31L685.343,361.493Z" style="fill:rgb(225,63,44);"/>
                                </g>
                                <g transform="matrix(0.970859,0,0,1,27.6569,0)">
                                    <path d="M690.273,352.026L949.071,351.099L947.046,345.63L692.52,347.241L690.273,352.026Z" style="fill:rgb(225,63,44);"/>
                                </g>
                                <g transform="matrix(0.983505,0,0,1,18.009,-11.2578)">
                                    <path d="M690.273,352.026L949.071,351.099L947.046,345.63L692.52,347.241L690.273,352.026Z" style="fill:rgb(225,63,44);"/>
                                </g>
                                <g transform="matrix(1,0,0,1,3.7513,-22.7318)">
                                    <path d="M690.273,352.026L949.071,351.099L947.046,345.63L692.52,347.241L690.273,352.026Z" style="fill:rgb(225,63,44);"/>
                                </g>
                                <g transform="matrix(0.978541,0,0,1,20.8323,-34.2357)">
                                    <path d="M690.273,352.026L949.071,351.099L947.046,345.63L692.52,347.241L690.273,352.026Z" style="fill:rgb(225,63,44);"/>
                                </g>
                                <g transform="matrix(0.975258,0,0,1,22.8481,-48.1367)">
                                    <path d="M690.273,352.026L949.071,351.099L947.046,345.63L692.52,347.241L690.273,352.026Z" style="fill:rgb(225,63,44);"/>
                                </g>
                                <g transform="matrix(0.978557,0,0,1,21.5583,-58.9531)">
                                    <path d="M690.273,352.026L949.071,351.099L947.046,345.63L692.52,347.241L690.273,352.026Z" style="fill:rgb(225,63,44);"/>
                                </g>
                                <g transform="matrix(0.984055,0,0,1,16.4872,-69.2852)">
                                    <path d="M690.273,352.026L949.071,351.099L947.046,345.63L692.52,347.241L690.273,352.026Z" style="fill:rgb(225,63,44);"/>
                                </g>
                                <g transform="matrix(0.973058,0,0,1,23.6828,-77.4987)">
                                    <path d="M690.273,352.026L949.071,351.099L947.046,345.63L692.52,347.241L690.273,352.026Z" style="fill:rgb(225,63,44);"/>
                                </g>
                                <g transform="matrix(0.97187,0,0,1,24.6443,-86.0586)">
                                    <path d="M690.273,352.026L949.071,351.099L947.046,345.63L692.52,347.241L690.273,352.026Z" style="fill:rgb(225,63,44);"/>
                                </g>
                                <g transform="matrix(0.973608,0,0,1,22.9175,-95.2422)">
                                    <path d="M690.273,352.026L949.071,351.099L947.046,345.63L692.52,347.241L690.273,352.026Z" style="fill:rgb(225,63,44);"/>
                                </g>
                            </g>
                            <g transform="matrix(0.943265,0,0,1.10709,45.7642,238.847)">
                                <path d="M685.343,361.493L953.817,360.725L951.786,355.94L687.871,357.31L685.343,361.493Z" style="fill:rgb(225,63,44);"/>
                                <path d="M690.273,352.026L949.071,351.099L947.046,345.63L692.52,347.241L690.273,352.026Z" style="fill:rgb(225,63,44);"/>
                                <g transform="matrix(1,0,0,1,2.35417,-11.2578)">
                                    <path d="M690.273,352.026L949.071,351.099L947.046,345.63L692.52,347.241L690.273,352.026Z" style="fill:rgb(225,63,44);"/>
                                </g>
                                <g transform="matrix(1,0,0,1,3.7513,-22.7318)">
                                    <path d="M690.273,352.026L949.071,351.099L947.046,345.63L692.52,347.241L690.273,352.026Z" style="fill:rgb(225,63,44);"/>
                                </g>
                                <g transform="matrix(1,0,0,1,0.466146,-34.2357)">
                                    <path d="M690.273,352.026L949.071,351.099L947.046,345.63L692.52,347.241L690.273,352.026Z" style="fill:rgb(225,63,44);"/>
                                </g>
                                <g transform="matrix(1,0,0,1,-0.634115,-48.1367)">
                                    <path d="M690.273,352.026L949.071,351.099L947.046,345.63L692.52,347.241L690.273,352.026Z" style="fill:rgb(225,63,44);"/>
                                </g>
                                <g transform="matrix(1,0,0,1,1.20703,-58.9531)">
                                    <path d="M690.273,352.026L949.071,351.099L947.046,345.63L692.52,347.241L690.273,352.026Z" style="fill:rgb(225,63,44);"/>
                                </g>
                                <g transform="matrix(1,0,0,1,1.35417,-69.2852)">
                                    <path d="M690.273,352.026L949.071,351.099L947.046,345.63L692.52,347.241L690.273,352.026Z" style="fill:rgb(225,63,44);"/>
                                </g>
                                <g transform="matrix(1,0,0,1,-1.88672,-77.4987)">
                                    <path d="M690.273,352.026L949.071,351.099L947.046,345.63L692.52,347.241L690.273,352.026Z" style="fill:rgb(225,63,44);"/>
                                </g>
                                <g transform="matrix(1,0,0,1,-2.05339,-86.0586)">
                                    <path d="M690.273,352.026L949.071,351.099L947.046,345.63L692.52,347.241L690.273,352.026Z" style="fill:rgb(225,63,44);"/>
                                </g>
                                <g transform="matrix(1,0,0,1,-2.13021,-95.2422)">
                                    <path d="M690.273,352.026L949.071,351.099L947.046,345.63L692.52,347.241L690.273,352.026Z" style="fill:rgb(225,63,44);"/>
                                </g>
                            </g>
                        </g>
                        <g>
                            <rect x="769.009" y="302.756" width="98.1" height="46.523" style="fill:rgb(245,247,242);"/>
                            <g transform="matrix(0.199466,0,0,0.443773,619.81,192.327)">
                                <rect x="769.009" y="302.756" width="98.1" height="46.523" style="fill:rgb(110,92,92);"/>
                            </g>
                            <g transform="matrix(0.199466,0,0,0.443773,643.712,192.163)">
                                <rect x="769.009" y="302.756" width="98.1" height="46.523" style="fill:rgb(110,92,92);"/>
                            </g>
                            <g transform="matrix(0.199466,0,0,0.443773,667.643,192.091)">
                                <rect x="769.009" y="302.756" width="98.1" height="46.523" style="fill:rgb(110,92,92);"/>
                            </g>
                            <g transform="matrix(0.199466,0,0,0.443773,690.187,192.149)">
                                <rect x="769.009" y="302.756" width="98.1" height="46.523" style="fill:rgb(110,92,92);"/>
                            </g>
                            <g transform="matrix(0.199466,0,0,0.443773,689.53,168.89)">
                                <rect x="769.009" y="302.756" width="98.1" height="46.523" style="fill:rgb(110,92,92);"/>
                            </g>
                            <g transform="matrix(0.199466,0,0,0.443773,667.388,168.83)">
                                <rect x="769.009" y="302.756" width="98.1" height="46.523" style="fill:rgb(110,92,92);"/>
                            </g>
                            <g transform="matrix(0.199466,0,0,0.443773,643.449,169.315)">
                                <rect x="769.009" y="302.756" width="98.1" height="46.523" style="fill:rgb(110,92,92);"/>
                            </g>
                            <g transform="matrix(0.199466,0,0,0.443773,620.053,169.185)">
                                <rect x="769.009" y="302.756" width="98.1" height="46.523" style="fill:rgb(110,92,92);"/>
                            </g>
                            <path d="M706.512,312.558L751.055,369.199L757.605,369.6L758.315,275.515L753.71,278.63L753.772,365.847L709.29,308.987L706.512,312.558Z" style="fill:rgb(247,246,244);"/>
                            <g transform="matrix(-1.0286,0,0,1.03489,1658.12,-10.5253)">
                                <path d="M706.512,312.558L751.055,369.199L757.605,369.6L758.315,275.515L753.71,278.63L753.772,365.847L709.29,308.987L706.512,312.558Z" style="fill:rgb(247,246,244);"/>
                            </g>
                        </g>
                    </g>
                    <g id="_door">
                        <g transform="matrix(0.440889,0,0,0.677438,457.549,178.499)">
                            <rect x="694.023" y="388.649" width="249.135" height="164.729"/>
                        </g>
                        <g>
                            <g transform="matrix(0.193994,0,0,0.682054,628.483,176.361)">
                                <rect x="694.023" y="388.649" width="249.135" height="164.729" style="fill:rgb(247,246,244);"/>
                            </g>
                            <g transform="matrix(0.152695,0,0,0.631086,661.56,200.724)">
                                <rect x="694.023" y="388.649" width="249.135" height="164.729" style="fill:rgb(225,63,44);"/>
                            </g>
                            <path d="M770.654,549.954L805.575,451.077L806.136,444.351L802.905,446.622L768.26,546.969L766.364,550.751L770.654,549.954Z" style="fill:rgb(247,246,244);"/>
                            <g transform="matrix(-1.08437,0,0,1,1640.1,-0.0507812)">
                                <path d="M770.654,549.954L805.575,451.077L806.136,444.351L802.905,446.622L768.26,546.969L766.364,550.751L770.654,549.954Z" style="fill:rgb(247,246,244);"/>
                            </g>
                        </g>
                    </g>
                </g>
            </g>
            <g id="ground" transform="matrix(1.86904,0,0,1.82182,-1859.63,-115.63)">
                <g transform="matrix(0.999518,0,0,1,602.697,0)">
                    <rect x="-7.201" y="554.748" width="1383.67" height="136.052" style="fill:rgb(145,179,50);"/>
                </g>
                <g transform="matrix(0.999518,0,0,0.50268,602.697,343.549)">
                    <rect x="-7.201" y="554.748" width="1383.67" height="136.052" style="fill:rgb(85,104,30);"/>
                </g>
            </g>
            <g id="pig" transform="matrix(1.15829,0,0,1.12903,659.796,-516.05)">
                <g id="legfrontr" transform="matrix(1,0,0,1,-7.32895,-41.2271)">
                    <g transform="matrix(1,0,0,0.947019,0,67.9018)">
                        <rect x="729.304" y="1281.62" width="7.412" height="39.16" style="fill:rgb(255,206,218);"/>
                    </g>
                    <g transform="matrix(-0.384702,0.375394,-0.433178,-0.443918,733.013,1319.24)">
                        <path d="M-3.049,-6.293C-5.461,-5.125 -6.993,-2.68 -6.993,0C-6.993,3.859 -3.859,6.993 0,6.993C2.68,6.993 5.125,5.461 6.293,3.049L0,0L-3.049,-6.293Z" style="fill:rgb(102,94,67);"/>
                    </g>
                </g>
                <g id="legfrontl" transform="matrix(1,0,0,1,9.49644,-37.4043)">
                    <g transform="matrix(1,0,0,0.947019,0,67.9018)">
                        <rect x="729.304" y="1281.62" width="7.412" height="39.16" style="fill:rgb(255,206,218);"/>
                    </g>
                    <g transform="matrix(-0.384702,0.375394,-0.433178,-0.443918,733.013,1319.24)">
                        <path d="M-3.049,-6.293C-5.461,-5.125 -6.993,-2.68 -6.993,0C-6.993,3.859 -3.859,6.993 0,6.993C2.68,6.993 5.125,5.461 6.293,3.049L0,0L-3.049,-6.293Z" style="fill:rgb(102,94,67);"/>
                    </g>
                </g>
                <g id="legbackl" transform="matrix(1,0,0,1,41.5314,-36.1497)">
                    <g transform="matrix(1,0,0,0.947019,0,67.9018)">
                        <rect x="729.304" y="1281.62" width="7.412" height="39.16" style="fill:rgb(255,206,218);"/>
                    </g>
                    <g transform="matrix(-0.384702,0.375394,-0.433178,-0.443918,733.013,1319.24)">
                        <path d="M-3.049,-6.293C-5.461,-5.125 -6.993,-2.68 -6.993,0C-6.993,3.859 -3.859,6.993 0,6.993C2.68,6.993 5.125,5.461 6.293,3.049L0,0L-3.049,-6.293Z" style="fill:rgb(102,94,67);"/>
                    </g>
                </g>
                <g id="legbackr" transform="matrix(1,0,0,1,60.6335,-42.3286)">
                    <g transform="matrix(1,0,0,0.947019,0,67.9018)">
                        <rect x="729.304" y="1281.62" width="7.412" height="39.16" style="fill:rgb(255,206,218);"/>
                    </g>
                    <g transform="matrix(-0.384702,0.375394,-0.433178,-0.443918,733.013,1319.24)">
                        <path d="M-3.049,-6.293C-5.461,-5.125 -6.993,-2.68 -6.993,0C-6.993,3.859 -3.859,6.993 0,6.993C2.68,6.993 5.125,5.461 6.293,3.049L0,0L-3.049,-6.293Z" style="fill:rgb(102,94,67);"/>
                    </g>
                </g>
                <g id="tail" transform="matrix(1,0,0,1,-29.528,-0.801768)">
                    <path d="M845.258,1223.76C844.797,1224.52 844.737,1225.42 845.179,1226.1C845.558,1226.68 846.296,1226.98 847.295,1226.98C848.631,1226.98 849.715,1228.06 849.715,1229.39C849.715,1230.73 848.631,1231.82 847.295,1231.82C844.292,1231.82 842.267,1230.49 841.129,1228.75C839.416,1226.13 839.71,1222.33 842.283,1219.76C842.799,1219.25 843.904,1218.76 845.338,1218.84C846.625,1218.92 848.321,1219.37 849.087,1219.69C849.664,1219.93 850.02,1220.22 850.183,1220.38C852.08,1222.3 853.38,1223.07 854.18,1224.65C854.764,1225.8 855.147,1227.38 855.147,1230.09C855.147,1230.93 855.316,1232.78 855.106,1233.78C854.943,1234.56 854.595,1235.13 854.233,1235.49C853.53,1236.19 849.208,1239.63 845.52,1240.48C843.492,1240.95 841.631,1240.7 840.217,1239.61L833.753,1238.74C831.91,1240.49 830.694,1241.26 830.051,1242.66C829.618,1243.61 829.506,1244.85 829.506,1246.91C829.506,1248.25 828.422,1249.34 827.086,1249.34C825.75,1249.34 824.666,1248.25 824.666,1246.91C824.666,1243.86 825.008,1242.05 825.649,1240.65C826.551,1238.68 828.146,1237.52 830.918,1234.74C831.174,1234.49 831.553,1234.21 832.105,1234.04C832.621,1233.88 833.651,1233.79 834.914,1233.88C837.097,1234.02 840.205,1234.55 841.527,1234.92C842.442,1235.17 842.971,1235.57 843.151,1235.75C843.343,1235.94 843.626,1235.88 843.914,1235.86C844.415,1235.8 844.946,1235.64 845.48,1235.43C847.454,1234.65 849.44,1233.22 850.358,1232.46C850.341,1231.85 850.306,1230.55 850.306,1230.09C850.306,1228.48 850.208,1227.52 849.861,1226.83C849.586,1226.29 849.152,1225.97 848.647,1225.53C848.182,1225.13 847.661,1224.69 847.085,1224.13L845.258,1223.76Z" style="fill:rgb(237,164,182);"/>
                </g>
                <g id="body" transform="matrix(0.617796,0,0,0.629458,399.342,445.978)">
                    <g transform="matrix(1.91459,0,0,1.19277,-784.875,-196.268)">
                        <ellipse cx="710.144" cy="1220.19" rx="38.935" ry="33.935" style="fill:rgb(237,164,182);"/>
                    </g>
                    <g transform="matrix(1.88138,0.21404,-0.132821,1.16748,-598.721,-323.013)">
                        <ellipse cx="710.144" cy="1220.19" rx="38.935" ry="33.935" style="fill:rgb(248,188,203);"/>
                    </g>
                </g>
                <g>
                    <g id="head" transform="matrix(1,0,0,1,209.193,0.363932)">
                        <g transform="matrix(0.814954,0,0,0.917495,-73.8273,97.508)">
                            <ellipse cx="710.144" cy="1220.19" rx="38.935" ry="33.935" style="fill:rgb(255,207,218);"/>
                            <clipPath id="_clip2">
                                <ellipse cx="710.144" cy="1220.19" rx="38.935" ry="33.935"/>
                            </clipPath>
                            <g clip-path="url(#_clip2)">
                                <g>
                                    <g transform="matrix(1.22706,0,0,1.08992,-166.103,-106.673)">
                                        <ellipse cx="702.541" cy="1208.03" rx="2.953" ry="2.912" style="fill:rgb(102,94,67);"/>
                                    </g>
                                    <g transform="matrix(1.22706,0,0,1.08992,-137.828,-106.374)">
                                        <ellipse cx="702.541" cy="1208.03" rx="2.953" ry="2.912" style="fill:rgb(102,94,67);"/>
                                    </g>
                                </g>
                                <g id="nose" transform="matrix(1.22706,0,0,1.08992,-166.103,-106.673)">
                                    <g transform="matrix(0.918619,0,0,1.43509,59.6989,-530.155)">
                                        <ellipse cx="712.931" cy="1222.9" rx="11.803" ry="5.882" style="fill:rgb(250,202,213);"/>
                                    </g>
                                    <g transform="matrix(0.714133,0,0,0.714133,208.292,362.366)">
                                        <ellipse cx="702.541" cy="1208.03" rx="2.953" ry="2.912" style="fill:rgb(102,94,67);"/>
                                    </g>
                                    <g transform="matrix(0.714133,0,0,0.714133,216.823,362.366)">
                                        <ellipse cx="702.541" cy="1208.03" rx="2.953" ry="2.912" style="fill:rgb(102,94,67);"/>
                                    </g>
                                </g>
                            </g>
                        </g>
                        <g transform="matrix(-1.09438,0,0,1.05344,1293.01,-64.8508)">
                            <path d="M744.496,1205.3C744.496,1205.3 760.95,1209.29 765.619,1188.89C765.619,1188.89 759.828,1195.49 743.272,1189.62C743.272,1189.62 734.246,1198.85 732.713,1194.13C731.179,1189.42 744.496,1205.3 744.496,1205.3Z" style="fill:rgb(252,203,215);"/>
                        </g>
                        <g transform="matrix(1,0,0,1,-209.193,-0.363932)">
                            <path d="M744.496,1205.3C744.496,1205.3 760.95,1209.29 765.619,1188.89C765.619,1188.89 759.828,1195.49 743.272,1189.62C743.272,1189.62 734.246,1198.85 732.713,1194.13C731.179,1189.42 744.496,1205.3 744.496,1205.3Z" style="fill:rgb(252,203,215);"/>
                        </g>
                    </g>
                    <g transform="matrix(1.61362,0,0,1.61362,-1214.22,354.66)">
                        <path d="M1165.06,516.839C1165.23,516.856 1165.53,516.885 1165.73,516.892C1166.08,516.904 1166.42,516.931 1166.64,516.997C1166.86,517.062 1167.03,517.167 1167.14,517.282C1167.21,517.354 1167.39,517.434 1167.63,517.541C1168.39,517.891 1169.64,518.307 1170.83,518.482C1171.36,518.56 1171.88,518.591 1172.33,518.534C1172.65,518.494 1172.94,518.421 1173.12,518.239C1173.33,518.029 1173.77,517.753 1174.35,517.487C1175.54,516.952 1177.38,516.391 1178.85,516.279C1179.97,516.194 1180.89,516.416 1181.36,516.891L1183.06,518.61C1183.38,518.697 1183.61,518.988 1183.61,519.333C1183.61,519.747 1183.27,520.083 1182.86,520.083C1182.69,520.083 1182.39,520.001 1182.08,519.756C1181.5,519.315 1180.54,518.193 1180.3,517.947C1180.16,517.812 1179.92,517.788 1179.65,517.768C1179.21,517.736 1178.69,517.785 1178.15,517.88C1177.11,518.061 1176,518.414 1175.17,518.767C1174.7,518.965 1174.34,519.144 1174.18,519.3C1173.86,519.623 1173.41,519.846 1172.88,519.961C1172.23,520.102 1171.44,520.086 1170.61,519.966C1169.27,519.769 1167.86,519.298 1167,518.904C1166.63,518.736 1166.36,518.567 1166.19,518.434C1166.02,518.428 1165.1,518.391 1164.7,518.311C1164.02,518.174 1163.69,517.76 1163.69,517.263C1163.69,516.849 1164.03,516.513 1164.44,516.513C1164.7,516.513 1164.93,516.642 1165.06,516.839Z" style="fill:rgb(237,164,182);"/>
                    </g>
                    <g transform="matrix(1.61362,0,0,1.61362,-1214.22,354.66)">
                        <path d="M1225.52,517.801C1225.66,517.646 1225.86,517.548 1226.08,517.548C1226.5,517.548 1226.83,517.884 1226.83,518.298C1226.83,518.499 1226.77,518.715 1226.57,518.909C1226.46,519.019 1226.24,519.154 1225.92,519.255C1225.09,519.517 1222.58,519.966 1222.43,519.993C1222.23,520.152 1221.86,520.31 1221.4,520.392C1220.46,520.557 1219.08,520.489 1218.51,520.202C1217.45,519.679 1215.64,519.184 1214.11,519.123C1213.64,519.104 1213.19,519.126 1212.81,519.212C1212.53,519.275 1212.28,519.364 1212.12,519.526C1211.9,519.752 1211.41,519.995 1210.98,520.299C1210.87,520.376 1210.76,520.458 1210.68,520.553C1210.62,520.617 1210.57,520.684 1210.57,520.773C1210.57,521.187 1210.23,521.523 1209.82,521.523C1209.4,521.523 1209.07,521.187 1209.07,520.773C1209.07,520.168 1209.38,519.675 1209.84,519.285C1210.25,518.935 1210.83,518.701 1211.06,518.465C1211.54,517.983 1212.34,517.699 1213.31,517.633C1215.18,517.505 1217.76,518.16 1219.17,518.858C1219.5,519.023 1220.24,519.02 1220.83,518.957C1221.09,518.93 1221.44,518.834 1221.5,518.817C1221.58,518.748 1221.69,518.673 1221.85,518.609C1222.04,518.528 1222.36,518.444 1222.73,518.367C1223.36,518.236 1224.2,518.109 1224.86,517.974C1225.1,517.923 1225.39,517.84 1225.52,517.801Z" style="fill:rgb(237,164,182);"/>
                    </g>
                </g>
            </g>
        </g>
    </g>
</svg>
