<?xml version="1.0" encoding="UTF-8" standalone="no"?>
<!DOCTYPE svg PUBLIC "-//W3C//DTD SVG 1.1//EN" "http://www.w3.org/Graphics/SVG/1.1/DTD/svg11.dtd">
<svg width="100%" height="100%" viewBox="0 0 1384 1302" version="1.1" xmlns="http://www.w3.org/2000/svg" xmlns:xlink="http://www.w3.org/1999/xlink" xml:space="preserve" xmlns:serif="http://www.serif.com/" style="fill-rule:evenodd;clip-rule:evenodd;stroke-linecap:round;stroke-linejoin:round;stroke-miterlimit:1.5;">
    <g id="background" transform="matrix(0.535299,0,0,1.03524,412.285,117.893)">
        <g id="sky" transform="matrix(1.86857,0,0,7.11025,-756.741,-4056.49)">
            <rect opacity="0" x="-7.201" y="554.748" width="1383.67" height="136.052" style="fill:rgb(227,218,166);"/>
        </g>
        <g id="hills" transform="matrix(1.70664,0,0,0.965958,-610.932,188.908)">
            <g transform="matrix(0.902533,0,0,1.08256,138.561,-55.2217)">
                <ellipse cx="811.161" cy="562.902" rx="610.466" ry="105.987" style="fill:rgb(190,218,78);"/>
            </g>
            <g transform="matrix(0.420764,0,0,1.19865,-177.766,-110.919)">
                <ellipse cx="811.161" cy="562.902" rx="610.466" ry="105.987" style="fill:rgb(248,233,200);"/>
            </g>
            <g transform="matrix(0.420764,0,0,0.966535,-177.766,44.3428)">
                <ellipse cx="811.161" cy="562.902" rx="610.466" ry="105.987" style="fill:rgb(255,227,112);"/>
            </g>
        </g>
        <g id="ground" transform="matrix(1.8553,0,0,0.965958,-1855.43,188.908)">
            <g transform="matrix(1.00715,0,0,1,592.19,5.68434e-14)">
                <rect x="-7.201" y="554.748" width="1383.67" height="136.052" style="fill:rgb(145,179,50);"/>
            </g>
            <g transform="matrix(1.0071,0,0,0.50268,592.263,343.549)">
                <rect x="-7.201" y="554.748" width="1383.67" height="136.052" style="fill:rgb(85,104,30);"/>
            </g>
        </g>
        <g transform="matrix(1.86857,0,0,2.12998,-756.741,-325.024)">
            <rect x="-7.201" y="554.748" width="1383.67" height="136.052" style="fill:rgb(182,91,63);"/>
        </g>
    </g>
    <g id="barn" transform="matrix(1,0,0,1,0,314.419)">
        <g id="_back" transform="matrix(1,0,0,1,221.811,-0.597002)">
            <rect x="694.023" y="388.649" width="249.135" height="164.729" style="fill:rgb(202,55,33);"/>
            <g transform="matrix(1.17373,0,0,0.0792178,-142.205,344.878)">
                <rect x="694.023" y="388.649" width="249.135" height="164.729" style="fill:rgb(202,55,33);"/>
            </g>
            <g>
                <path d="M672.392,375.666L701.99,305.527L819.114,235.243L937.484,305.155L969.472,376.503L672.392,375.666Z" style="fill:rgb(103,94,68);"/>
                <g transform="matrix(0.960321,0,0,0.935938,31.8294,20.8944)">
                    <path d="M672.392,375.666L701.99,305.527L819.114,235.243L937.484,305.155L969.472,376.503L672.392,375.666Z" style="fill:rgb(202,55,33);"/>
                </g>
                <g transform="matrix(1.04236,0,0,1.10709,-35.8127,-29.8508)">
                    <path d="M685.343,361.493L953.817,360.725L951.786,355.94L687.871,357.31L685.343,361.493Z" style="fill:rgb(225,63,44);"/>
                    <path d="M690.273,352.026L949.071,351.099L947.046,345.63L692.52,347.241L690.273,352.026Z" style="fill:rgb(225,63,44);"/>
                    <g transform="matrix(0.950805,0,0,1,36.3119,-11.2578)">
                        <path d="M690.273,352.026L949.071,351.099L947.046,345.63L692.52,347.241L690.273,352.026Z" style="fill:rgb(225,63,44);"/>
                    </g>
                    <g transform="matrix(0.883226,0,0,1,95.3739,-22.7318)">
                        <path d="M690.273,352.026L949.071,351.099L947.046,345.63L692.52,347.241L690.273,352.026Z" style="fill:rgb(225,63,44);"/>
                    </g>
                    <g transform="matrix(0.849284,0,0,1,123.649,-34.2357)">
                        <path d="M690.273,352.026L949.071,351.099L947.046,345.63L692.52,347.241L690.273,352.026Z" style="fill:rgb(225,63,44);"/>
                    </g>
                    <g transform="matrix(0.736955,0,0,1,213.197,-48.1367)">
                        <path d="M690.273,352.026L949.071,351.099L947.046,345.63L692.52,347.241L690.273,352.026Z" style="fill:rgb(225,63,44);"/>
                    </g>
                    <g transform="matrix(0.580919,0,0,1,343.62,-58.9531)">
                        <path d="M690.273,352.026L949.071,351.099L947.046,345.63L692.52,347.241L690.273,352.026Z" style="fill:rgb(225,63,44);"/>
                    </g>
                    <g transform="matrix(0.432756,0,0,1,464.107,-69.2852)">
                        <path d="M690.273,352.026L949.071,351.099L947.046,345.63L692.52,347.241L690.273,352.026Z" style="fill:rgb(225,63,44);"/>
                    </g>
                    <g transform="matrix(0.310894,0,0,1,563.866,-77.4987)">
                        <path d="M690.273,352.026L949.071,351.099L947.046,345.63L692.52,347.241L690.273,352.026Z" style="fill:rgb(225,63,44);"/>
                    </g>
                    <g transform="matrix(0.209315,0,0,1,648.503,-86.0586)">
                        <path d="M690.273,352.026L949.071,351.099L947.046,345.63L692.52,347.241L690.273,352.026Z" style="fill:rgb(225,63,44);"/>
                    </g>
                    <g transform="matrix(0.0782624,0,0,1,754.241,-95.2422)">
                        <path d="M690.273,352.026L949.071,351.099L947.046,345.63L692.52,347.241L690.273,352.026Z" style="fill:rgb(225,63,44);"/>
                    </g>
                </g>
                <g transform="matrix(0.960812,0,0,1.10709,27.3686,112.433)">
                    <g transform="matrix(0.953889,0,0,1,43.9817,0)">
                        <path d="M685.343,361.493L953.817,360.725L951.786,355.94L687.871,357.31L685.343,361.493Z" style="fill:rgb(225,63,44);"/>
                    </g>
                    <g transform="matrix(0.970859,0,0,1,27.6569,0)">
                        <path d="M690.273,352.026L949.071,351.099L947.046,345.63L692.52,347.241L690.273,352.026Z" style="fill:rgb(225,63,44);"/>
                    </g>
                    <g transform="matrix(0.983505,0,0,1,18.009,-11.2578)">
                        <path d="M690.273,352.026L949.071,351.099L947.046,345.63L692.52,347.241L690.273,352.026Z" style="fill:rgb(225,63,44);"/>
                    </g>
                    <g transform="matrix(1,0,0,1,3.7513,-22.7318)">
                        <path d="M690.273,352.026L949.071,351.099L947.046,345.63L692.52,347.241L690.273,352.026Z" style="fill:rgb(225,63,44);"/>
                    </g>
                    <g transform="matrix(0.978541,0,0,1,20.8323,-34.2357)">
                        <path d="M690.273,352.026L949.071,351.099L947.046,345.63L692.52,347.241L690.273,352.026Z" style="fill:rgb(225,63,44);"/>
                    </g>
                    <g transform="matrix(0.975258,0,0,1,22.8481,-48.1367)">
                        <path d="M690.273,352.026L949.071,351.099L947.046,345.63L692.52,347.241L690.273,352.026Z" style="fill:rgb(225,63,44);"/>
                    </g>
                    <g transform="matrix(0.978557,0,0,1,21.5583,-58.9531)">
                        <path d="M690.273,352.026L949.071,351.099L947.046,345.63L692.52,347.241L690.273,352.026Z" style="fill:rgb(225,63,44);"/>
                    </g>
                    <g transform="matrix(0.984055,0,0,1,16.4872,-69.2852)">
                        <path d="M690.273,352.026L949.071,351.099L947.046,345.63L692.52,347.241L690.273,352.026Z" style="fill:rgb(225,63,44);"/>
                    </g>
                    <g transform="matrix(0.973058,0,0,1,23.6828,-77.4987)">
                        <path d="M690.273,352.026L949.071,351.099L947.046,345.63L692.52,347.241L690.273,352.026Z" style="fill:rgb(225,63,44);"/>
                    </g>
                    <g transform="matrix(0.97187,0,0,1,24.6443,-86.0586)">
                        <path d="M690.273,352.026L949.071,351.099L947.046,345.63L692.52,347.241L690.273,352.026Z" style="fill:rgb(225,63,44);"/>
                    </g>
                    <g transform="matrix(0.973608,0,0,1,22.9175,-95.2422)">
                        <path d="M690.273,352.026L949.071,351.099L947.046,345.63L692.52,347.241L690.273,352.026Z" style="fill:rgb(225,63,44);"/>
                    </g>
                </g>
                <g transform="matrix(0.943265,0,0,1.10709,45.7642,238.847)">
                    <g transform="matrix(1,0,0,1,1.35417,-69.2852)">
                        <path d="M690.273,352.026L949.071,351.099L947.046,345.63L692.52,347.241L690.273,352.026Z" style="fill:rgb(225,63,44);"/>
                    </g>
                    <g transform="matrix(1,0,0,1,-1.88672,-77.4987)">
                        <path d="M690.273,352.026L949.071,351.099L947.046,345.63L692.52,347.241L690.273,352.026Z" style="fill:rgb(225,63,44);"/>
                    </g>
                    <g transform="matrix(1,0,0,1,-2.05339,-86.0586)">
                        <path d="M690.273,352.026L949.071,351.099L947.046,345.63L692.52,347.241L690.273,352.026Z" style="fill:rgb(225,63,44);"/>
                    </g>
                    <g transform="matrix(1,0,0,1,-2.13021,-95.2422)">
                        <path d="M690.273,352.026L949.071,351.099L947.046,345.63L692.52,347.241L690.273,352.026Z" style="fill:rgb(225,63,44);"/>
                    </g>
                </g>
                <g>
                    <rect x="769.009" y="302.756" width="98.1" height="46.523" style="fill:rgb(245,247,242);"/>
                    <g transform="matrix(0.199466,0,0,0.443773,619.81,192.327)">
                        <rect x="769.009" y="302.756" width="98.1" height="46.523" style="fill:rgb(110,92,92);"/>
                    </g>
                    <g transform="matrix(0.199466,0,0,0.443773,643.712,192.163)">
                        <rect x="769.009" y="302.756" width="98.1" height="46.523" style="fill:rgb(110,92,92);"/>
                    </g>
                    <g transform="matrix(0.199466,0,0,0.443773,667.643,192.091)">
                        <rect x="769.009" y="302.756" width="98.1" height="46.523" style="fill:rgb(110,92,92);"/>
                    </g>
                    <g transform="matrix(0.199466,0,0,0.443773,690.187,192.149)">
                        <rect x="769.009" y="302.756" width="98.1" height="46.523" style="fill:rgb(110,92,92);"/>
                    </g>
                    <g transform="matrix(0.199466,0,0,0.443773,689.53,168.89)">
                        <rect x="769.009" y="302.756" width="98.1" height="46.523" style="fill:rgb(110,92,92);"/>
                    </g>
                    <g transform="matrix(0.199466,0,0,0.443773,667.388,168.83)">
                        <rect x="769.009" y="302.756" width="98.1" height="46.523" style="fill:rgb(110,92,92);"/>
                    </g>
                    <g transform="matrix(0.199466,0,0,0.443773,643.449,169.315)">
                        <rect x="769.009" y="302.756" width="98.1" height="46.523" style="fill:rgb(110,92,92);"/>
                    </g>
                    <g transform="matrix(0.199466,0,0,0.443773,620.053,169.185)">
                        <rect x="769.009" y="302.756" width="98.1" height="46.523" style="fill:rgb(110,92,92);"/>
                    </g>
                    <path d="M706.512,312.558L751.055,369.199L757.605,369.6L758.315,275.515L753.71,278.63L753.772,365.847L709.29,308.987L706.512,312.558Z" style="fill:rgb(247,246,244);"/>
                    <g transform="matrix(-1.0286,0,0,1.03489,1658.12,-10.5253)">
                        <path d="M706.512,312.558L751.055,369.199L757.605,369.6L758.315,275.515L753.71,278.63L753.772,365.847L709.29,308.987L706.512,312.558Z" style="fill:rgb(247,246,244);"/>
                    </g>
                </g>
            </g>
            <g transform="matrix(-0.976576,0,0,1.0155,1616.8,-7.57405)">
                <g transform="matrix(0.440889,0,0,0.677438,457.549,178.499)">
                    <rect x="694.023" y="388.649" width="249.135" height="164.729" style="fill:rgb(247,246,244);"/>
                </g>
                <g transform="matrix(0.228847,0,0,0.613806,652.059,209.175)">
                    <rect x="694.023" y="388.649" width="249.135" height="164.729"/>
                </g>
                <g transform="matrix(0.228847,0,0,0.613806,650.793,208.399)">
                    <rect x="694.023" y="388.649" width="249.135" height="164.729"/>
                </g>
            </g>
            <g id="_doorright" transform="matrix(-1,7.67615e-17,-7.67615e-17,-1,1636.68,995.412)">
                <g id="_closed">
                    <g id="_" transform="matrix(0.193994,0,0,0.682054,628.483,176.361)">
                        <rect x="694.023" y="388.649" width="249.135" height="164.729" style="fill:rgb(247,246,244);"/>
                    </g>
                    <g id="_1" serif:id="_" transform="matrix(0.152695,0,0,0.631086,661.56,200.724)">
                        <rect x="694.023" y="388.649" width="249.135" height="164.729" style="fill:rgb(225,63,44);"/>
                    </g>
                    <path id="_2" serif:id="_" d="M770.654,549.954L805.575,451.077L806.136,444.351L802.905,446.622L768.26,546.969L766.364,550.751L770.654,549.954Z" style="fill:rgb(247,246,244);"/>
                    <g id="_3" serif:id="_" transform="matrix(-1.08437,0,0,1,1640.1,-0.0507812)">
                        <path d="M770.654,549.954L805.575,451.077L806.136,444.351L802.905,446.622L768.26,546.969L766.364,550.751L770.654,549.954Z" style="fill:rgb(247,246,244);"/>
                    </g>
                </g>
            </g>
        </g>
        <g id="_front" transform="matrix(1,0,0,1,12.6172,-0.960934)">
            <g id="_building">
                <rect id="_frontb" x="694.023" y="388.649" width="249.135" height="164.729" style="fill:rgb(202,55,33);"/>
                <g id="_awning" transform="matrix(1.17373,0,0,0.0792178,-142.205,344.878)">
                    <rect x="694.023" y="388.649" width="249.135" height="164.729" style="fill:rgb(202,55,33);"/>
                </g>
            </g>
            <g id="_siding">
                <g>
                    <path d="M672.392,375.666L701.99,305.527L819.114,235.243L937.484,305.155L969.472,376.503L672.392,375.666Z" style="fill:rgb(102,94,67);"/>
                    <g transform="matrix(0.960321,0,0,0.935938,31.8294,20.8944)">
                        <path d="M672.392,375.666L701.99,305.527L819.114,235.243L937.484,305.155L969.472,376.503L672.392,375.666Z" style="fill:rgb(202,55,33);"/>
                    </g>
                    <g transform="matrix(1.04236,0,0,1.10709,-35.8127,-29.8508)">
                        <path d="M685.343,361.493L953.817,360.725L951.786,355.94L687.871,357.31L685.343,361.493Z" style="fill:rgb(225,63,44);"/>
                        <path d="M690.273,352.026L949.071,351.099L947.046,345.63L692.52,347.241L690.273,352.026Z" style="fill:rgb(225,63,44);"/>
                        <g transform="matrix(0.950805,0,0,1,36.3119,-11.2578)">
                            <path d="M690.273,352.026L949.071,351.099L947.046,345.63L692.52,347.241L690.273,352.026Z" style="fill:rgb(225,63,44);"/>
                        </g>
                        <g transform="matrix(0.883226,0,0,1,95.3739,-22.7318)">
                            <path d="M690.273,352.026L949.071,351.099L947.046,345.63L692.52,347.241L690.273,352.026Z" style="fill:rgb(225,63,44);"/>
                        </g>
                        <g transform="matrix(0.849284,0,0,1,123.649,-34.2357)">
                            <path d="M690.273,352.026L949.071,351.099L947.046,345.63L692.52,347.241L690.273,352.026Z" style="fill:rgb(225,63,44);"/>
                        </g>
                        <g transform="matrix(0.736955,0,0,1,213.197,-48.1367)">
                            <path d="M690.273,352.026L949.071,351.099L947.046,345.63L692.52,347.241L690.273,352.026Z" style="fill:rgb(225,63,44);"/>
                        </g>
                        <g transform="matrix(0.580919,0,0,1,343.62,-58.9531)">
                            <path d="M690.273,352.026L949.071,351.099L947.046,345.63L692.52,347.241L690.273,352.026Z" style="fill:rgb(225,63,44);"/>
                        </g>
                        <g transform="matrix(0.432756,0,0,1,464.107,-69.2852)">
                            <path d="M690.273,352.026L949.071,351.099L947.046,345.63L692.52,347.241L690.273,352.026Z" style="fill:rgb(225,63,44);"/>
                        </g>
                        <g transform="matrix(0.310894,0,0,1,563.866,-77.4987)">
                            <path d="M690.273,352.026L949.071,351.099L947.046,345.63L692.52,347.241L690.273,352.026Z" style="fill:rgb(225,63,44);"/>
                        </g>
                        <g transform="matrix(0.209315,0,0,1,648.503,-86.0586)">
                            <path d="M690.273,352.026L949.071,351.099L947.046,345.63L692.52,347.241L690.273,352.026Z" style="fill:rgb(225,63,44);"/>
                        </g>
                        <g transform="matrix(0.0782624,0,0,1,754.241,-95.2422)">
                            <path d="M690.273,352.026L949.071,351.099L947.046,345.63L692.52,347.241L690.273,352.026Z" style="fill:rgb(225,63,44);"/>
                        </g>
                    </g>
                </g>
                <g>
                    <g transform="matrix(0.960812,0,0,1.10709,27.3686,112.433)">
                        <g transform="matrix(0.953889,0,0,1,43.9817,0)">
                            <path d="M685.343,361.493L953.817,360.725L951.786,355.94L687.871,357.31L685.343,361.493Z" style="fill:rgb(225,63,44);"/>
                        </g>
                        <g transform="matrix(0.970859,0,0,1,27.6569,0)">
                            <path d="M690.273,352.026L949.071,351.099L947.046,345.63L692.52,347.241L690.273,352.026Z" style="fill:rgb(225,63,44);"/>
                        </g>
                        <g transform="matrix(0.983505,0,0,1,18.009,-11.2578)">
                            <path d="M690.273,352.026L949.071,351.099L947.046,345.63L692.52,347.241L690.273,352.026Z" style="fill:rgb(225,63,44);"/>
                        </g>
                        <g transform="matrix(1,0,0,1,3.7513,-22.7318)">
                            <path d="M690.273,352.026L949.071,351.099L947.046,345.63L692.52,347.241L690.273,352.026Z" style="fill:rgb(225,63,44);"/>
                        </g>
                        <g transform="matrix(0.978541,0,0,1,20.8323,-34.2357)">
                            <path d="M690.273,352.026L949.071,351.099L947.046,345.63L692.52,347.241L690.273,352.026Z" style="fill:rgb(225,63,44);"/>
                        </g>
                        <g transform="matrix(0.975258,0,0,1,22.8481,-48.1367)">
                            <path d="M690.273,352.026L949.071,351.099L947.046,345.63L692.52,347.241L690.273,352.026Z" style="fill:rgb(225,63,44);"/>
                        </g>
                        <g transform="matrix(0.978557,0,0,1,21.5583,-58.9531)">
                            <path d="M690.273,352.026L949.071,351.099L947.046,345.63L692.52,347.241L690.273,352.026Z" style="fill:rgb(225,63,44);"/>
                        </g>
                        <g transform="matrix(0.984055,0,0,1,16.4872,-69.2852)">
                            <path d="M690.273,352.026L949.071,351.099L947.046,345.63L692.52,347.241L690.273,352.026Z" style="fill:rgb(225,63,44);"/>
                        </g>
                        <g transform="matrix(0.973058,0,0,1,23.6828,-77.4987)">
                            <path d="M690.273,352.026L949.071,351.099L947.046,345.63L692.52,347.241L690.273,352.026Z" style="fill:rgb(225,63,44);"/>
                        </g>
                        <g transform="matrix(0.97187,0,0,1,24.6443,-86.0586)">
                            <path d="M690.273,352.026L949.071,351.099L947.046,345.63L692.52,347.241L690.273,352.026Z" style="fill:rgb(225,63,44);"/>
                        </g>
                        <g transform="matrix(0.973608,0,0,1,22.9175,-95.2422)">
                            <path d="M690.273,352.026L949.071,351.099L947.046,345.63L692.52,347.241L690.273,352.026Z" style="fill:rgb(225,63,44);"/>
                        </g>
                    </g>
                    <g transform="matrix(0.943265,0,0,1.10709,45.7642,238.847)">
                        <g transform="matrix(1,0,0,1,1.35417,-69.2852)">
                            <path d="M690.273,352.026L949.071,351.099L947.046,345.63L692.52,347.241L690.273,352.026Z" style="fill:rgb(225,63,44);"/>
                        </g>
                        <g transform="matrix(1,0,0,1,-1.88672,-77.4987)">
                            <path d="M690.273,352.026L949.071,351.099L947.046,345.63L692.52,347.241L690.273,352.026Z" style="fill:rgb(225,63,44);"/>
                        </g>
                        <g transform="matrix(1,0,0,1,-2.05339,-86.0586)">
                            <path d="M690.273,352.026L949.071,351.099L947.046,345.63L692.52,347.241L690.273,352.026Z" style="fill:rgb(225,63,44);"/>
                        </g>
                        <g transform="matrix(1,0,0,1,-2.13021,-95.2422)">
                            <path d="M690.273,352.026L949.071,351.099L947.046,345.63L692.52,347.241L690.273,352.026Z" style="fill:rgb(225,63,44);"/>
                        </g>
                    </g>
                </g>
                <g>
                    <rect x="769.009" y="302.756" width="98.1" height="46.523" style="fill:rgb(245,247,242);"/>
                    <g transform="matrix(0.199466,0,0,0.443773,619.81,192.327)">
                        <rect x="769.009" y="302.756" width="98.1" height="46.523" style="fill:rgb(110,92,92);"/>
                    </g>
                    <g transform="matrix(0.199466,0,0,0.443773,643.712,192.163)">
                        <rect x="769.009" y="302.756" width="98.1" height="46.523" style="fill:rgb(110,92,92);"/>
                    </g>
                    <g transform="matrix(0.199466,0,0,0.443773,667.643,192.091)">
                        <rect x="769.009" y="302.756" width="98.1" height="46.523" style="fill:rgb(110,92,92);"/>
                    </g>
                    <g transform="matrix(0.199466,0,0,0.443773,690.187,192.149)">
                        <rect x="769.009" y="302.756" width="98.1" height="46.523" style="fill:rgb(110,92,92);"/>
                    </g>
                    <g transform="matrix(0.199466,0,0,0.443773,689.53,168.89)">
                        <rect x="769.009" y="302.756" width="98.1" height="46.523" style="fill:rgb(110,92,92);"/>
                    </g>
                    <g transform="matrix(0.199466,0,0,0.443773,667.388,168.83)">
                        <rect x="769.009" y="302.756" width="98.1" height="46.523" style="fill:rgb(110,92,92);"/>
                    </g>
                    <g transform="matrix(0.199466,0,0,0.443773,643.449,169.315)">
                        <rect x="769.009" y="302.756" width="98.1" height="46.523" style="fill:rgb(110,92,92);"/>
                    </g>
                    <g transform="matrix(0.199466,0,0,0.443773,620.053,169.185)">
                        <rect x="769.009" y="302.756" width="98.1" height="46.523" style="fill:rgb(110,92,92);"/>
                    </g>
                    <path d="M706.512,312.558L751.055,369.199L757.605,369.6L758.315,275.515L753.71,278.63L753.772,365.847L709.29,308.987L706.512,312.558Z" style="fill:rgb(247,246,244);"/>
                    <g transform="matrix(-1.0286,0,0,1.03489,1658.12,-10.5253)">
                        <path d="M706.512,312.558L751.055,369.199L757.605,369.6L758.315,275.515L753.71,278.63L753.772,365.847L709.29,308.987L706.512,312.558Z" style="fill:rgb(247,246,244);"/>
                    </g>
                </g>
            </g>
            <g id="_door">
                <g>
                    <g transform="matrix(0.440889,0,0,0.677438,457.549,178.499)">
                        <rect x="694.023" y="388.649" width="249.135" height="164.729" style="fill:rgb(247,246,244);"/>
                    </g>
                    <g transform="matrix(0.228847,0,0,0.613806,652.059,209.175)">
                        <rect x="694.023" y="388.649" width="249.135" height="164.729"/>
                    </g>
                    <g transform="matrix(0.228847,0,0,0.613806,650.793,208.399)">
                        <rect x="694.023" y="388.649" width="249.135" height="164.729"/>
                    </g>
                </g>
                <g>
                    <g transform="matrix(0.193994,0,0,0.682054,628.483,176.361)">
                        <rect x="694.023" y="388.649" width="249.135" height="164.729" style="fill:rgb(247,246,244);"/>
                    </g>
                    <g transform="matrix(0.152695,0,0,0.631086,661.56,200.724)">
                        <rect x="694.023" y="388.649" width="249.135" height="164.729" style="fill:rgb(225,63,44);"/>
                    </g>
                    <path d="M770.654,549.954L805.575,451.077L806.136,444.351L802.905,446.622L768.26,546.969L766.364,550.751L770.654,549.954Z" style="fill:rgb(247,246,244);"/>
                    <g transform="matrix(-1.08437,0,0,1,1640.1,-0.0507812)">
                        <path d="M770.654,549.954L805.575,451.077L806.136,444.351L802.905,446.622L768.26,546.969L766.364,550.751L770.654,549.954Z" style="fill:rgb(247,246,244);"/>
                    </g>
                </g>
            </g>
        </g>
    </g>
    <g id="pig" transform="matrix(0.619724,0,0,0.619724,765.097,93.6668)">
        <g id="legfrontr" transform="matrix(1,0,0,1,-7.32895,-41.2271)">
            <g transform="matrix(1,0,0,0.947019,0,67.9018)">
                <rect x="729.304" y="1281.62" width="7.412" height="39.16" style="fill:rgb(255,206,218);"/>
            </g>
            <g transform="matrix(-0.384702,0.375394,-0.433178,-0.443918,733.013,1319.24)">
                <path d="M-3.049,-6.293C-5.461,-5.125 -6.993,-2.68 -6.993,0C-6.993,3.859 -3.859,6.993 0,6.993C2.68,6.993 5.125,5.461 6.293,3.049L0,0L-3.049,-6.293Z" style="fill:rgb(102,94,67);"/>
            </g>
        </g>
        <g id="legfrontl" transform="matrix(1,0,0,1,9.49644,-37.4043)">
            <g transform="matrix(1,0,0,0.947019,0,67.9018)">
                <rect x="729.304" y="1281.62" width="7.412" height="39.16" style="fill:rgb(255,206,218);"/>
            </g>
            <g transform="matrix(-0.384702,0.375394,-0.433178,-0.443918,733.013,1319.24)">
                <path d="M-3.049,-6.293C-5.461,-5.125 -6.993,-2.68 -6.993,0C-6.993,3.859 -3.859,6.993 0,6.993C2.68,6.993 5.125,5.461 6.293,3.049L0,0L-3.049,-6.293Z" style="fill:rgb(102,94,67);"/>
            </g>
        </g>
        <g id="legbackl" transform="matrix(1,0,0,1,41.5314,-36.1497)">
            <g transform="matrix(1,0,0,0.947019,0,67.9018)">
                <rect x="729.304" y="1281.62" width="7.412" height="39.16" style="fill:rgb(255,206,218);"/>
            </g>
            <g transform="matrix(-0.384702,0.375394,-0.433178,-0.443918,733.013,1319.24)">
                <path d="M-3.049,-6.293C-5.461,-5.125 -6.993,-2.68 -6.993,0C-6.993,3.859 -3.859,6.993 0,6.993C2.68,6.993 5.125,5.461 6.293,3.049L0,0L-3.049,-6.293Z" style="fill:rgb(102,94,67);"/>
            </g>
        </g>
        <g id="legbackr" transform="matrix(1,0,0,1,60.6335,-42.3286)">
            <g transform="matrix(1,0,0,0.947019,0,67.9018)">
                <rect x="729.304" y="1281.62" width="7.412" height="39.16" style="fill:rgb(255,206,218);"/>
            </g>
            <g transform="matrix(-0.384702,0.375394,-0.433178,-0.443918,733.013,1319.24)">
                <path d="M-3.049,-6.293C-5.461,-5.125 -6.993,-2.68 -6.993,0C-6.993,3.859 -3.859,6.993 0,6.993C2.68,6.993 5.125,5.461 6.293,3.049L0,0L-3.049,-6.293Z" style="fill:rgb(102,94,67);"/>
            </g>
        </g>
        <g id="tail" transform="matrix(1,0,0,1,-29.528,-0.801768)">
            <path d="M845.258,1223.76C844.797,1224.52 844.737,1225.42 845.179,1226.1C845.558,1226.68 846.296,1226.98 847.295,1226.98C848.631,1226.98 849.715,1228.06 849.715,1229.39C849.715,1230.73 848.631,1231.82 847.295,1231.82C844.292,1231.82 842.267,1230.49 841.129,1228.75C839.416,1226.13 839.71,1222.33 842.283,1219.76C842.799,1219.25 843.904,1218.76 845.338,1218.84C846.625,1218.92 848.321,1219.37 849.087,1219.69C849.664,1219.93 850.02,1220.22 850.183,1220.38C852.08,1222.3 853.38,1223.07 854.18,1224.65C854.764,1225.8 855.147,1227.38 855.147,1230.09C855.147,1230.93 855.316,1232.78 855.106,1233.78C854.943,1234.56 854.595,1235.13 854.233,1235.49C853.53,1236.19 849.208,1239.63 845.52,1240.48C843.492,1240.95 841.631,1240.7 840.217,1239.61L833.753,1238.74C831.91,1240.49 830.694,1241.26 830.051,1242.66C829.618,1243.61 829.506,1244.85 829.506,1246.91C829.506,1248.25 828.422,1249.34 827.086,1249.34C825.75,1249.34 824.666,1248.25 824.666,1246.91C824.666,1243.86 825.008,1242.05 825.649,1240.65C826.551,1238.68 828.146,1237.52 830.918,1234.74C831.174,1234.49 831.553,1234.21 832.105,1234.04C832.621,1233.88 833.651,1233.79 834.914,1233.88C837.097,1234.02 840.205,1234.55 841.527,1234.92C842.442,1235.17 842.971,1235.57 843.151,1235.75C843.343,1235.94 843.626,1235.88 843.914,1235.86C844.415,1235.8 844.946,1235.64 845.48,1235.43C847.454,1234.65 849.44,1233.22 850.358,1232.46C850.341,1231.85 850.306,1230.55 850.306,1230.09C850.306,1228.48 850.208,1227.52 849.861,1226.83C849.586,1226.29 849.152,1225.97 848.647,1225.53C848.182,1225.13 847.661,1224.69 847.085,1224.13L845.258,1223.76Z" style="fill:rgb(237,164,182);"/>
        </g>
        <g id="body" transform="matrix(0.617796,0,0,0.629458,399.342,445.978)">
            <g transform="matrix(1.91459,0,0,1.19277,-784.875,-196.268)">
                <ellipse cx="710.144" cy="1220.19" rx="38.935" ry="33.935" style="fill:rgb(237,164,182);"/>
            </g>
            <g transform="matrix(1.88138,0.21404,-0.132821,1.16748,-598.721,-323.013)">
                <ellipse cx="710.144" cy="1220.19" rx="38.935" ry="33.935" style="fill:rgb(248,188,203);"/>
            </g>
        </g>
        <g id="head">
            <g id="head1" serif:id="head" transform="matrix(1,0,0,1,209.193,0.363932)">
                <g transform="matrix(0.814954,0,0,0.917495,-73.8273,97.508)">
                    <ellipse cx="710.144" cy="1220.19" rx="38.935" ry="33.935" style="fill:rgb(255,207,218);"/>
                    <g>
                        <g>
                            <g transform="matrix(1.22706,0,0,1.08992,-166.103,-106.673)">
                                <ellipse cx="702.541" cy="1208.03" rx="2.953" ry="2.912" style="fill:rgb(102,94,67);"/>
                            </g>
                            <g transform="matrix(1.22706,0,0,1.08992,-137.828,-106.374)">
                                <ellipse cx="702.541" cy="1208.03" rx="2.953" ry="2.912" style="fill:rgb(102,94,67);"/>
                            </g>
                        </g>
                        <g id="nose" transform="matrix(1.22706,0,0,1.08992,-166.103,-106.673)">
                            <g transform="matrix(0.918619,0,0,1.43509,59.6989,-530.155)">
                                <ellipse cx="712.931" cy="1222.9" rx="11.803" ry="5.882" style="fill:rgb(250,202,213);"/>
                            </g>
                            <g transform="matrix(0.714133,0,0,0.714133,208.292,362.366)">
                                <ellipse cx="702.541" cy="1208.03" rx="2.953" ry="2.912" style="fill:rgb(102,94,67);"/>
                            </g>
                            <g transform="matrix(0.714133,0,0,0.714133,216.823,362.366)">
                                <ellipse cx="702.541" cy="1208.03" rx="2.953" ry="2.912" style="fill:rgb(102,94,67);"/>
                            </g>
                        </g>
                    </g>
                </g>
                <g transform="matrix(-1.09438,0,0,1.05344,1293.01,-64.8508)">
                    <path d="M744.496,1205.3C744.496,1205.3 760.95,1209.29 765.619,1188.89C765.619,1188.89 759.828,1195.49 743.272,1189.62C743.272,1189.62 734.246,1198.85 732.713,1194.13C731.179,1189.42 744.496,1205.3 744.496,1205.3Z" style="fill:rgb(252,203,215);"/>
                </g>
                <g transform="matrix(1,0,0,1,-209.193,-0.363932)">
                    <path d="M744.496,1205.3C744.496,1205.3 760.95,1209.29 765.619,1188.89C765.619,1188.89 759.828,1195.49 743.272,1189.62C743.272,1189.62 734.246,1198.85 732.713,1194.13C731.179,1189.42 744.496,1205.3 744.496,1205.3Z" style="fill:rgb(252,203,215);"/>
                </g>
            </g>
            <g transform="matrix(1.61362,0,0,1.61362,-1214.22,354.66)">
                <path d="M1165.06,516.839C1165.23,516.856 1165.53,516.885 1165.73,516.892C1166.08,516.904 1166.42,516.931 1166.64,516.997C1166.86,517.062 1167.03,517.167 1167.14,517.282C1167.21,517.354 1167.39,517.434 1167.63,517.541C1168.39,517.891 1169.64,518.307 1170.83,518.482C1171.36,518.56 1171.88,518.591 1172.33,518.534C1172.65,518.494 1172.94,518.421 1173.12,518.239C1173.33,518.029 1173.77,517.753 1174.35,517.487C1175.54,516.952 1177.38,516.391 1178.85,516.279C1179.97,516.194 1180.89,516.416 1181.36,516.891L1183.06,518.61C1183.38,518.697 1183.61,518.988 1183.61,519.333C1183.61,519.747 1183.27,520.083 1182.86,520.083C1182.69,520.083 1182.39,520.001 1182.08,519.756C1181.5,519.315 1180.54,518.193 1180.3,517.947C1180.16,517.812 1179.92,517.788 1179.65,517.768C1179.21,517.736 1178.69,517.785 1178.15,517.88C1177.11,518.061 1176,518.414 1175.17,518.767C1174.7,518.965 1174.34,519.144 1174.18,519.3C1173.86,519.623 1173.41,519.846 1172.88,519.961C1172.23,520.102 1171.44,520.086 1170.61,519.966C1169.27,519.769 1167.86,519.298 1167,518.904C1166.63,518.736 1166.36,518.567 1166.19,518.434C1166.02,518.428 1165.1,518.391 1164.7,518.311C1164.02,518.174 1163.69,517.76 1163.69,517.263C1163.69,516.849 1164.03,516.513 1164.44,516.513C1164.7,516.513 1164.93,516.642 1165.06,516.839Z" style="fill:rgb(237,164,182);"/>
            </g>
            <g transform="matrix(1.61362,0,0,1.61362,-1214.22,354.66)">
                <path d="M1225.52,517.801C1225.66,517.646 1225.86,517.548 1226.08,517.548C1226.5,517.548 1226.83,517.884 1226.83,518.298C1226.83,518.499 1226.77,518.715 1226.57,518.909C1226.46,519.019 1226.24,519.154 1225.92,519.255C1225.09,519.517 1222.58,519.966 1222.43,519.993C1222.23,520.152 1221.86,520.31 1221.4,520.392C1220.46,520.557 1219.08,520.489 1218.51,520.202C1217.45,519.679 1215.64,519.184 1214.11,519.123C1213.64,519.104 1213.19,519.126 1212.81,519.212C1212.53,519.275 1212.28,519.364 1212.12,519.526C1211.9,519.752 1211.41,519.995 1210.98,520.299C1210.87,520.376 1210.76,520.458 1210.68,520.553C1210.62,520.617 1210.57,520.684 1210.57,520.773C1210.57,521.187 1210.23,521.523 1209.82,521.523C1209.4,521.523 1209.07,521.187 1209.07,520.773C1209.07,520.168 1209.38,519.675 1209.84,519.285C1210.25,518.935 1210.83,518.701 1211.06,518.465C1211.54,517.983 1212.34,517.699 1213.31,517.633C1215.18,517.505 1217.76,518.16 1219.17,518.858C1219.5,519.023 1220.24,519.02 1220.83,518.957C1221.09,518.93 1221.44,518.834 1221.5,518.817C1221.58,518.748 1221.69,518.673 1221.85,518.609C1222.04,518.528 1222.36,518.444 1222.73,518.367C1223.36,518.236 1224.2,518.109 1224.86,517.974C1225.1,517.923 1225.39,517.84 1225.52,517.801Z" style="fill:rgb(237,164,182);"/>
            </g>
        </g>
    </g>
    <g id="cow" transform="matrix(1,0,0,1,168.391,5.21484)">
        <g id="legbackright" transform="matrix(1,0,0,1,91.3333,-1.03776)">
            <path d="M345.615,900.914C346.692,900.773 348.511,900.693 348.601,899.611C349.174,892.745 349.8,866.808 349.051,859.723C348.855,857.868 345.422,857.08 344.111,857.098C342.801,857.115 341.268,858.496 341.186,859.828C340.745,867.069 340.723,893.696 341.461,900.544C341.61,901.926 344.425,901.069 345.615,900.914Z" style="fill:rgb(237,237,237);"/>
            <path d="M340.844,899.025C340.504,899.473 340.212,900.206 340.012,900.822C339.814,901.434 339.703,902.077 339.646,902.719C339.586,903.395 339.348,904.694 339.651,904.88C339.954,905.067 340.838,904.144 341.465,903.839C342.26,903.452 343.526,902.658 344.422,902.562C345.256,902.472 346.052,902.972 346.84,903.261C347.657,903.56 348.788,904.372 349.326,904.359C349.789,904.348 350.029,903.645 350.066,903.183C350.111,902.606 349.888,901.576 349.6,900.898C349.315,900.229 348.896,899.582 348.335,899.118C347.714,898.602 346.632,898.071 345.873,897.807C345.207,897.576 344.412,897.484 343.776,897.538C343.171,897.589 342.542,897.884 342.053,898.131C341.606,898.358 341.147,898.626 340.844,899.025Z" style="fill:rgb(88,88,88);"/>
        </g>
        <g id="legfrontright" transform="matrix(1,0,0,1,14.1914,-0.33724)">
            <path d="M345.615,900.914C346.692,900.773 348.511,900.693 348.601,899.611C349.174,892.745 349.8,866.808 349.051,859.723C348.855,857.868 345.422,857.08 344.111,857.098C342.801,857.115 341.268,858.496 341.186,859.828C340.745,867.069 340.723,893.696 341.461,900.544C341.61,901.926 344.425,901.069 345.615,900.914Z" style="fill:rgb(237,237,237);"/>
            <path d="M340.844,899.025C340.504,899.473 340.212,900.206 340.012,900.822C339.814,901.434 339.703,902.077 339.646,902.719C339.586,903.395 339.348,904.694 339.651,904.88C339.954,905.067 340.838,904.144 341.465,903.839C342.26,903.452 343.526,902.658 344.422,902.562C345.256,902.472 346.052,902.972 346.84,903.261C347.657,903.56 348.788,904.372 349.326,904.359C349.789,904.348 350.029,903.645 350.066,903.183C350.111,902.606 349.888,901.576 349.6,900.898C349.315,900.229 348.896,899.582 348.335,899.118C347.714,898.602 346.632,898.071 345.873,897.807C345.207,897.576 344.412,897.484 343.776,897.538C343.171,897.589 342.542,897.884 342.053,898.131C341.606,898.358 341.147,898.626 340.844,899.025Z" style="fill:rgb(88,88,88);"/>
        </g>
        <g id="body1" serif:id="body">
            <path d="M409.015,871.312C408.009,871.672 407.004,870.24 406.486,869.344C405.967,868.447 405.44,866.988 405.903,865.931C406.626,864.279 408.59,860.978 410.825,859.434C413.754,857.411 419.511,854.601 423.478,853.79C427.128,853.044 432.408,853.93 434.627,854.569C435.826,854.915 436.701,856.379 436.793,857.624C436.895,859.016 435.716,861.144 435.241,862.922C434.69,864.986 434.695,867.896 433.486,870.007C432.121,872.391 428.979,875.175 427.051,877.222C425.402,878.973 423.259,881.568 421.916,882.292C421.032,882.769 419.336,882.249 418.991,881.57C418.646,880.892 419.24,879.202 419.846,878.224C420.47,877.217 422.393,876.408 422.734,875.533C423.06,874.696 422.398,873.368 421.889,872.974C421.38,872.579 420.291,872.753 419.679,873.168C418.769,873.785 417.512,876.05 416.429,876.678C415.489,877.223 413.566,877.432 413.179,876.936C412.792,876.44 413.503,874.648 414.106,873.703C414.764,872.672 416.685,871.833 417.125,870.75C417.565,869.667 417.307,867.872 416.746,867.204C416.184,866.536 414.646,866.269 413.756,866.742C412.467,867.427 410.227,870.879 409.015,871.312Z" style="fill:rgb(248,190,182);"/>
            <path d="M332.689,852.144C334.466,855.318 337.177,858.151 340.368,859.897C344.419,862.114 351.429,864.132 356.995,865.445C362.487,866.741 368.132,867.413 373.763,867.777C379.443,868.143 385.309,867.881 391.075,867.643C398.131,867.351 409.462,866.899 416.099,866.025C421.134,865.363 427.044,863.816 430.898,862.403C433.914,861.297 437.047,859.558 439.222,857.547C441.331,855.596 443.126,853.09 443.944,850.335C445.019,846.719 445.449,840.708 445.669,835.851C445.926,830.161 446.557,820.959 445.487,816.195C444.691,812.654 442.288,809.254 439.248,807.27C435.662,804.93 428.973,803.257 423.972,802.152C419.152,801.088 414.168,800.932 409.239,800.643C403.638,800.314 396.653,800.017 390.361,800.182C382.348,800.391 368.239,801.429 361.163,801.899C356.738,802.193 352.237,802.31 347.904,803.004C343.592,803.693 338.241,804.791 335.164,806.059C332.911,806.987 330.6,808.464 329.444,810.609C327.953,813.372 326.518,818.5 326.221,822.641C325.904,827.041 326.517,832.309 327.546,837.006C328.624,841.923 330.552,848.329 332.689,852.144Z" style="fill:rgb(245,245,247);"/>
            <path d="M364.74,866.88C362.258,866.198 369.296,863.575 370.748,862.03C371.93,860.771 373.801,859.255 373.449,857.61C373.098,855.966 370.309,853.848 368.641,852.164C367.004,850.51 364.09,848.948 363.443,847.504C362.868,846.223 363.783,844.514 364.755,843.501C366.046,842.156 369.218,840.329 371.186,839.432C372.866,838.667 374.893,838.122 376.566,838.12C378.178,838.118 380.122,838.244 381.225,839.42C382.374,840.644 382.497,843.714 383.459,845.465C384.374,847.128 385.941,848.596 387.002,849.925C387.939,851.098 388.576,852.622 389.823,853.435C391.07,854.247 393.333,853.966 394.483,854.8C395.632,855.634 396.278,857.086 396.72,858.44C397.17,859.817 397.657,861.762 397.181,863.063C396.706,864.364 394.928,865.501 393.867,866.248C392.962,866.884 391.918,867.519 390.813,867.543C385.958,867.648 368.084,867.799 364.74,866.88Z" style="fill:rgb(88,88,88);"/>
            <path d="M444.701,847.56C443.19,846.55 438.167,842.723 435.926,839.422C433.684,836.119 431.752,831.711 431.246,827.741C430.741,823.771 431.437,818.884 432.893,815.604C434.292,812.449 437.874,808.13 439.98,808.057C442.086,807.983 444.52,813.127 445.529,815.161C446.289,816.692 446.023,818.554 446.038,820.264C446.058,822.631 445.785,826.33 445.651,829.364C445.509,832.604 445.292,837.019 445.183,839.705C445.105,841.629 445.076,844.171 444.996,845.48C444.953,846.179 445.284,847.949 444.701,847.56Z" style="fill:rgb(88,88,88);"/>
            <path d="M414.397,800.495C415.656,800.788 413.303,802.943 412.382,803.81C411.461,804.676 409.752,804.7 408.872,805.695C407.951,806.735 406.558,808.696 406.857,810.05C407.156,811.404 408.93,813.39 410.663,813.82C412.446,814.262 416.378,811.586 417.553,812.702C418.729,813.817 418.763,818.129 417.716,820.514C416.617,823.018 414.089,826.703 410.956,827.729C407.651,828.811 401.145,828.832 397.883,827.005C394.62,825.179 394.415,819.279 391.383,816.77C388.351,814.262 381.693,813.861 379.691,811.954C378.089,810.427 380.869,806.952 379.371,805.324C377.688,803.494 369.308,801.82 369.591,800.977C369.874,800.134 377.238,800.389 381.07,800.265C385.555,800.12 391.356,800.071 396.499,800.106C402.054,800.144 411.75,799.878 414.397,800.495Z" style="fill:rgb(88,88,88);"/>
            <path d="M328.416,840.319C329.689,841.872 332.465,836.757 333.666,834.412C335.034,831.744 335.811,827.084 336.62,824.306C337.257,822.12 336.831,819.268 338.523,817.744C340.273,816.169 344.736,816.081 347.118,814.856C349.264,813.752 352.031,811.902 352.819,810.392C353.543,809.004 352.66,807.081 351.844,805.799C351.027,804.516 349.582,802.585 347.919,802.699C344.797,802.914 336.673,805.303 333.111,807.085C330.397,808.442 327.657,810.567 326.547,813.39C325.367,816.391 325.759,821.195 326.029,825.09C326.341,829.578 327.144,838.765 328.416,840.319Z" style="fill:rgb(88,88,88);"/>
        </g>
        <g id="legfrontleft">
            <path d="M345.615,900.914C346.692,900.773 348.511,900.693 348.601,899.611C349.174,892.745 349.8,866.808 349.051,859.723C348.855,857.868 345.422,857.08 344.111,857.098C342.801,857.115 341.268,858.496 341.186,859.828C340.745,867.069 340.723,893.696 341.461,900.544C341.61,901.926 344.425,901.069 345.615,900.914Z" style="fill:rgb(237,237,237);"/>
            <path d="M340.844,899.025C340.504,899.473 340.212,900.206 340.012,900.822C339.814,901.434 339.703,902.077 339.646,902.719C339.586,903.395 339.348,904.694 339.651,904.88C339.954,905.067 340.838,904.144 341.465,903.839C342.26,903.452 343.526,902.658 344.422,902.562C345.256,902.472 346.052,902.972 346.84,903.261C347.657,903.56 348.788,904.372 349.326,904.359C349.789,904.348 350.029,903.645 350.066,903.183C350.111,902.606 349.888,901.576 349.6,900.898C349.315,900.229 348.896,899.582 348.335,899.118C347.714,898.602 346.632,898.071 345.873,897.807C345.207,897.576 344.412,897.484 343.776,897.538C343.171,897.589 342.542,897.884 342.053,898.131C341.606,898.358 341.147,898.626 340.844,899.025Z" style="fill:rgb(88,88,88);"/>
            <g id="legbackleft" transform="matrix(1,0,0,1,75.1003,-0.11849)">
                <path d="M345.615,900.914C346.692,900.773 348.511,900.693 348.601,899.611C349.174,892.745 349.8,866.808 349.051,859.723C348.855,857.868 345.422,857.08 344.111,857.098C342.801,857.115 341.268,858.496 341.186,859.828C340.745,867.069 340.723,893.696 341.461,900.544C341.61,901.926 344.425,901.069 345.615,900.914Z" style="fill:rgb(237,237,237);"/>
                <path d="M340.844,899.025C340.504,899.473 340.212,900.206 340.012,900.822C339.814,901.434 339.703,902.077 339.646,902.719C339.586,903.395 339.348,904.694 339.651,904.88C339.954,905.067 340.838,904.144 341.465,903.839C342.26,903.452 343.526,902.658 344.422,902.562C345.256,902.472 346.052,902.972 346.84,903.261C347.657,903.56 348.788,904.372 349.326,904.359C349.789,904.348 350.029,903.645 350.066,903.183C350.111,902.606 349.888,901.576 349.6,900.898C349.315,900.229 348.896,899.582 348.335,899.118C347.714,898.602 346.632,898.071 345.873,897.807C345.207,897.576 344.412,897.484 343.776,897.538C343.171,897.589 342.542,897.884 342.053,898.131C341.606,898.358 341.147,898.626 340.844,899.025Z" style="fill:rgb(88,88,88);"/>
            </g>
        </g>
        <g id="head2" serif:id="head">
            <path d="M303.863,799.763C302.88,799.997 301.809,799.485 300.938,798.975C299.778,798.297 298.164,796.876 296.908,795.694C295.651,794.512 294.224,793.201 293.398,791.883C292.63,790.656 292.109,789.226 291.956,787.786C291.793,786.26 292.112,784.226 292.421,782.727C292.701,781.364 293.227,778.59 293.808,778.789C294.39,778.989 295.01,782.308 295.91,783.923C296.906,785.711 298.03,788.077 299.784,789.513C301.753,791.127 306.02,792.389 307.726,793.605C308.795,794.367 310.663,795.78 310.019,796.807C309.376,797.833 305.376,799.401 303.863,799.763Z" style="fill:rgb(181,139,82);"/>
            <path d="M332.978,800.4C334.598,800.347 336.596,799.672 338.161,798.759C339.812,797.796 341.659,796.101 342.883,794.625C344.034,793.238 344.945,791.611 345.509,789.9C346.079,788.172 346.386,785.864 346.301,784.256C346.228,782.855 345.347,781.172 345.001,780.253C344.802,779.723 344.488,778.429 344.229,778.74C343.97,779.052 343.882,781.048 343.449,782.12C342.951,783.355 342.152,784.92 341.239,786.15C340.242,787.493 338.649,789.106 337.469,790.178C336.459,791.095 335.306,791.944 334.158,792.583C333.037,793.207 331.58,793.58 330.583,794.013C329.766,794.368 328.525,794.36 328.178,795.182C327.822,796.026 327.645,798.207 328.445,799.077C329.245,799.947 331.405,800.452 332.978,800.4Z" style="fill:rgb(181,139,82);"/>
            <path d="M333.286,807.055C334.423,808.07 335.999,808.474 337.289,809.265C338.572,810.052 339.635,811.223 341.024,811.8C342.51,812.418 344.435,813.091 346.199,812.97C347.992,812.848 350.213,811.986 351.777,811.067C353.285,810.182 355.045,808.584 355.583,807.458C356.043,806.494 355.817,805 355.004,804.308C353.619,803.127 349.859,801.191 347.269,800.37C344.771,799.579 342.004,799.387 339.469,799.385C336.978,799.383 333.673,799.827 332.059,800.358C331.056,800.688 329.596,801.528 329.786,802.568C329.991,803.684 332.035,805.939 333.286,807.055Z" style="fill:rgb(210,210,210);"/>
            <path d="M286.949,810.907C288.344,811.693 289.89,812.968 291.54,813.117C293.191,813.267 295.162,812.49 296.853,811.805C298.58,811.105 300.331,810.05 301.906,808.917C303.699,807.627 306.916,805.333 307.612,804.061C308.119,803.134 306.867,801.993 306.083,801.283C305.184,800.469 303.655,799.465 302.215,799.175C300.628,798.856 298.431,799.133 296.56,799.369C294.502,799.629 291.783,800.073 289.865,800.733C288.142,801.327 286.214,802.478 285.055,803.333C284.165,803.991 283.224,805.023 282.91,805.868C282.615,806.665 282.642,807.741 283.174,808.403C283.847,809.243 285.634,810.166 286.949,810.907Z" style="fill:rgb(210,210,210);"/>
            <g transform="matrix(1.00133,0,0,1.10967,-0.449698,-86.5371)">
                <path d="M318.856,789.136C322.324,788.797 326.34,791.121 328.692,792.674C330.692,793.995 331.922,796.298 332.966,798.454C334.02,800.629 334.527,803.252 335.012,805.721C335.594,808.687 336.202,812.717 336.459,816.251C336.754,820.3 339.831,827.726 336.78,830.018C333.729,832.31 323.964,830.27 318.151,830.003C312.716,829.754 304.616,832.646 301.904,828.42C299.192,824.194 301.2,810.234 301.88,804.647C302.306,801.146 303.383,797.275 305.986,794.896C308.816,792.311 315.072,789.507 318.856,789.136Z" style="fill:rgb(245,245,247);"/>
            </g>
            <path d="M342.516,838.816C341.993,840.882 340.967,844.439 339.006,846.291C337.046,848.144 333.698,849.327 330.753,849.931C327.589,850.58 323.603,850.24 320.028,850.185C315.955,850.123 309.821,850.074 306.316,849.559C303.77,849.186 300.771,848.965 298.998,847.101C296.934,844.93 293.855,839.454 293.933,836.537C294.011,833.62 296.64,830.475 299.465,829.601C303.63,828.312 312.759,828.933 318.92,828.804C324.755,828.683 332.558,827.982 336.429,828.831C338.916,829.376 341.132,832.233 342.146,833.897C343.002,835.301 342.92,837.222 342.516,838.816Z" style="fill:rgb(250,188,184);"/>
            <ellipse cx="306.942" cy="839.883" rx="2.067" ry="1.95" style="fill:rgb(100,90,86);"/>
            <g transform="matrix(1,0,0,1,22.8063,0.295)">
                <ellipse cx="306.942" cy="839.883" rx="2.067" ry="1.95" style="fill:rgb(100,90,86);"/>
            </g>
            <g transform="matrix(1,0,0,1,18.2131,-32.6388)">
                <ellipse cx="306.942" cy="839.883" rx="2.067" ry="1.95" style="fill:rgb(100,90,86);"/>
            </g>
            <g transform="matrix(1,0,0,1,5.01375,-32.6144)">
                <ellipse cx="306.942" cy="839.883" rx="2.067" ry="1.95" style="fill:rgb(100,90,86);"/>
            </g>
        </g>
    </g>
    <g id="farmer">
        <g id="head3" serif:id="head" transform="matrix(1,0,0,1,0.00469333,2.7904)">
            <path d="M808.808,793.04C809.158,794.764 810.385,797.09 811.22,798.414C811.87,799.446 812.907,800.374 813.818,800.988C814.668,801.561 815.662,802.156 816.685,802.097C817.753,802.036 819.253,801.306 820.223,800.619C821.174,799.946 821.947,798.997 822.507,797.976C823.135,796.833 823.679,795.168 823.986,793.765C824.286,792.388 824.479,790.815 824.346,789.553C824.223,788.376 823.994,787.065 823.193,786.193C822.335,785.26 820.231,784.383 819.199,783.953C818.516,783.669 817.739,783.523 817.004,783.613C815.744,783.768 812.956,784.138 811.643,784.881C810.463,785.548 809.567,786.791 809.122,788.071C808.65,789.431 808.479,791.413 808.808,793.04Z" style="fill:rgb(255,196,135);"/>
            <g>
                <clipPath id="_clip1">
                    <path d="M808.808,793.04C809.158,794.764 810.385,797.09 811.22,798.414C811.87,799.446 812.907,800.374 813.818,800.988C814.668,801.561 815.662,802.156 816.685,802.097C817.753,802.036 819.253,801.306 820.223,800.619C821.174,799.946 821.947,798.997 822.507,797.976C823.135,796.833 823.679,795.168 823.986,793.765C824.286,792.388 824.479,790.815 824.346,789.553C824.223,788.376 823.994,787.065 823.193,786.193C822.335,785.26 820.231,784.383 819.199,783.953C818.516,783.669 817.739,783.523 817.004,783.613C815.744,783.768 812.956,784.138 811.643,784.881C810.463,785.548 809.567,786.791 809.122,788.071C808.65,789.431 808.479,791.413 808.808,793.04Z"/>
                </clipPath>
                <g clip-path="url(#_clip1)">
                    <g transform="matrix(0.483749,0,0,0.512821,665.275,358.841)">
                        <ellipse cx="306.942" cy="839.883" rx="2.067" ry="1.95" style="fill:rgb(100,90,86);"/>
                    </g>
                    <g transform="matrix(0.483749,0,0,0.512821,670.621,358.902)">
                        <ellipse cx="306.942" cy="839.883" rx="2.067" ry="1.95" style="fill:rgb(100,90,86);"/>
                    </g>
                    <g transform="matrix(0.483749,0,0,0.512821,670.621,358.902)">
                        <ellipse cx="306.942" cy="839.883" rx="2.067" ry="1.95" style="fill:rgb(100,90,86);"/>
                    </g>
                </g>
            </g>
            <g id="hat">
                <path d="M816.654,787.434C818.356,787.458 820.446,787.677 822.313,787.406C824.275,787.121 826.897,786.414 828.423,785.723C829.613,785.184 830.991,783.991 831.47,783.259C831.822,782.719 831.701,781.832 831.293,781.332C830.768,780.69 829.406,779.869 828.32,779.406C827.233,778.943 825.978,778.698 824.77,778.554C822.795,778.319 819.002,777.962 816.469,777.995C814.157,778.025 811.492,778.498 809.573,778.749C808.028,778.952 806.209,778.96 804.958,779.503C803.789,780.011 802.563,781.257 802.066,782.007C801.699,782.562 801.494,783.548 801.98,784.003C802.767,784.739 805.097,785.875 806.783,786.418C808.47,786.961 810.453,787.092 812.098,787.261C813.61,787.417 815.135,787.413 816.654,787.434Z" style="fill:rgb(234,182,54);"/>
                <path d="M807.611,782.793C806.364,782.148 807.258,779.747 807.617,778.582C807.962,777.463 808.839,776.518 809.768,775.805C810.865,774.961 812.911,773.901 814.202,773.52C815.261,773.207 816.418,773.389 817.514,773.518C818.74,773.661 820.422,773.779 821.56,774.382C822.698,774.984 823.668,776.166 824.341,777.133C824.97,778.035 825.339,779.288 825.602,780.181C825.821,780.926 826.632,782.187 825.917,782.488C824.549,783.065 820.263,783.593 817.397,783.64C814.346,783.691 809.241,783.636 807.611,782.793Z" style="fill:rgb(232,194,120);"/>
                <path d="M826.477,782.239C825.93,782.577 823.915,782.84 822.616,783.038C821.064,783.274 818.991,783.608 817.161,783.656C815.269,783.707 812.946,783.528 811.26,783.341C809.838,783.183 807.799,782.841 807.044,782.534C806.712,782.399 806.487,781.691 806.734,781.504C806.98,781.317 807.932,781.342 808.526,781.413C809.324,781.509 810.51,781.957 811.527,782.079C812.964,782.251 815.29,782.513 817.145,782.447C818.997,782.382 821.195,781.924 822.654,781.684C823.744,781.505 825.262,780.917 825.899,781.009C826.347,781.074 826.862,782.001 826.477,782.239Z" style="fill:rgb(203,44,46);"/>
            </g>
        </g>
        <g id="leftcalf" transform="matrix(1,0,0,0.623618,0,348.73)">
            <g id="lefttshoe" transform="matrix(1,0,0,1,-15.1832,0.124753)">
                <g transform="matrix(1,0,0,1.03615,0,-30.8729)">
                    <path d="M825.19,916.832C824.522,916.794 823.888,917.142 823.235,917.289C822.536,917.447 821.408,917.133 820.992,917.776C820.444,918.621 820.165,920.813 819.949,922.364C819.734,923.916 819.376,925.77 819.699,927.083C820.006,928.328 821.03,929.585 821.892,930.243C822.707,930.867 823.843,931.075 824.868,931.034C825.953,930.99 827.5,930.551 828.396,929.984C829.239,929.45 830.041,928.608 830.244,927.632C830.491,926.449 830.064,924.361 829.874,922.886C829.695,921.505 829.516,919.676 829.101,918.782C828.803,918.139 828.022,917.838 827.388,917.522C826.736,917.197 825.883,916.87 825.19,916.832Z" style="fill:rgb(161,119,82);"/>
                </g>
                <g transform="matrix(0.977338,0,0,0.935087,18.6712,62.3449)">
                    <path d="M825.19,916.832C824.522,916.794 823.888,917.142 823.235,917.289C822.536,917.447 821.408,917.133 820.992,917.776C820.444,918.621 820.165,920.813 819.949,922.364C819.734,923.916 819.376,925.77 819.699,927.083C820.006,928.328 821.03,929.585 821.892,930.243C822.707,930.867 823.843,931.075 824.868,931.034C825.953,930.99 827.5,930.551 828.396,929.984C829.239,929.45 830.041,928.608 830.244,927.632C830.491,926.449 830.064,924.361 829.874,922.886C829.695,921.505 829.516,919.676 829.101,918.782C828.803,918.139 828.022,917.838 827.388,917.522C826.736,917.197 825.883,916.87 825.19,916.832Z" style="fill:rgb(205,159,120);"/>
                </g>
                <g transform="matrix(1,0,0,1.03615,0,-30.8729)">
                    <path d="M822.329,926.301L827.862,924.92L823.102,922.983L827.306,920.793" style="fill:none;stroke:rgb(232,210,186);stroke-width:1px;"/>
                </g>
                <g transform="matrix(-1.12947,0,0,1.03615,1757.4,-30.7511)">
                    <path d="M822.329,926.301L827.862,924.92L823.102,922.983L827.306,920.793" style="fill:none;stroke:rgb(232,210,186);stroke-width:0.94px;"/>
                </g>
            </g>
            <g transform="matrix(0.999785,0,0,1,0.172168,1.42109e-14)">
                <path d="M809.965,854.296C811.944,854.945 814.491,857.306 815.558,858.689C816.37,859.741 816.239,861.27 816.367,862.593C816.518,864.154 816.506,866.232 816.465,868.051C816.394,871.247 816.136,877.201 815.94,881.775C815.706,887.214 815.457,894.435 815.065,900.684C814.676,906.887 814.103,915.9 813.59,919.271C813.475,920.028 812.584,920.589 811.985,920.914C811.396,921.233 810.665,921.286 809.999,921.22C809.228,921.144 807.985,920.879 807.362,920.457C806.786,920.067 806.385,919.37 806.26,918.687C805.662,915.432 804.385,906.872 803.774,900.925C803.147,894.824 802.726,887.62 802.498,882.078C802.301,877.28 802.453,870.876 802.409,867.673C802.387,866.066 802.267,864.367 802.231,862.855C802.198,861.438 801.952,859.947 802.195,858.603C802.437,857.26 802.492,855.452 803.686,854.79C804.981,854.072 807.986,853.646 809.965,854.296Z" style="fill:rgb(86,47,36);"/>
            </g>
            <g transform="matrix(1,0,0,1.03615,-14.944,-31.0794)">
                <path d="M829.707,917.152C829.707,916.773 829.398,916.465 829.019,916.465L820.541,916.465C820.162,916.465 819.854,916.773 819.854,917.152L819.854,918.528C819.854,918.907 820.162,919.215 820.541,919.215L829.019,919.215C829.398,919.215 829.707,918.907 829.707,918.528L829.707,917.152Z" style="fill:rgb(114,78,68);"/>
            </g>
        </g>
        <g id="leftleg" transform="matrix(1.1064,0,0,1,-102.506,-1.92708)">
            <path d="M830.341,863.51C830.341,861.567 828.916,859.99 827.16,859.99L820.796,859.99C819.04,859.99 817.615,861.567 817.615,863.51L817.615,890.324C817.615,892.267 819.04,893.844 820.796,893.844L827.16,893.844C828.916,893.844 830.341,892.267 830.341,890.324L830.341,863.51Z" style="fill:rgb(87,47,35);"/>
        </g>
        <g id="rightcalf" transform="matrix(-0.921522,0,0,0.649063,1569.76,326.643)">
            <g id="rightshoe" transform="matrix(-1.08516,0,0,0.965109,1703.44,29.9382)">
                <g transform="matrix(1,0,0,1.03615,0,-30.8729)">
                    <path d="M825.19,916.832C824.522,916.794 823.888,917.142 823.235,917.289C822.536,917.447 821.408,917.133 820.992,917.776C820.444,918.621 820.165,920.813 819.949,922.364C819.734,923.916 819.376,925.77 819.699,927.083C820.006,928.328 821.03,929.585 821.892,930.243C822.707,930.867 823.843,931.075 824.868,931.034C825.953,930.99 827.5,930.551 828.396,929.984C829.239,929.45 830.041,928.608 830.244,927.632C830.491,926.449 830.064,924.361 829.874,922.886C829.695,921.505 829.516,919.676 829.101,918.782C828.803,918.139 828.022,917.838 827.388,917.522C826.736,917.197 825.883,916.87 825.19,916.832Z" style="fill:rgb(161,119,82);"/>
                </g>
                <g transform="matrix(0.977338,0,0,0.935087,18.6712,62.3449)">
                    <path d="M825.19,916.832C824.522,916.794 823.888,917.142 823.235,917.289C822.536,917.447 821.408,917.133 820.992,917.776C820.444,918.621 820.165,920.813 819.949,922.364C819.734,923.916 819.376,925.77 819.699,927.083C820.006,928.328 821.03,929.585 821.892,930.243C822.707,930.867 823.843,931.075 824.868,931.034C825.953,930.99 827.5,930.551 828.396,929.984C829.239,929.45 830.041,928.608 830.244,927.632C830.491,926.449 830.064,924.361 829.874,922.886C829.695,921.505 829.516,919.676 829.101,918.782C828.803,918.139 828.022,917.838 827.388,917.522C826.736,917.197 825.883,916.87 825.19,916.832Z" style="fill:rgb(205,159,120);"/>
                </g>
                <g transform="matrix(1,0,0,1.03615,0,-30.8729)">
                    <path d="M822.329,926.301L827.862,924.92L823.102,922.983L827.306,920.793" style="fill:none;stroke:rgb(232,210,186);stroke-width:1px;"/>
                </g>
                <g transform="matrix(-1.12947,0,0,1.03615,1757.4,-30.7511)">
                    <path d="M822.329,926.301L827.862,924.92L823.102,922.983L827.306,920.793" style="fill:none;stroke:rgb(232,210,186);stroke-width:0.94px;"/>
                </g>
            </g>
            <g transform="matrix(0.999785,0,0,0.966524,0.172168,28.9216)">
                <path d="M809.965,854.296C811.944,854.945 814.491,857.306 815.558,858.689C816.37,859.741 816.239,861.27 816.367,862.593C816.518,864.154 816.506,866.232 816.465,868.051C816.394,871.247 816.136,877.201 815.94,881.775C815.706,887.214 815.457,894.435 815.065,900.684C814.676,906.887 814.103,915.9 813.59,919.271C813.475,920.028 812.584,920.589 811.985,920.914C811.396,921.233 810.665,921.286 809.999,921.22C809.228,921.144 807.985,920.879 807.362,920.457C806.786,920.067 806.385,919.37 806.26,918.687C805.662,915.432 804.385,906.872 803.774,900.925C803.147,894.824 802.726,887.62 802.498,882.078C802.301,877.28 802.453,870.876 802.409,867.673C802.387,866.066 802.267,864.367 802.231,862.855C802.198,861.438 801.952,859.947 802.195,858.603C802.437,857.26 802.492,855.452 803.686,854.79C804.981,854.072 807.986,853.646 809.965,854.296Z" style="fill:rgb(86,47,36);"/>
            </g>
            <g transform="matrix(-1.15767,0,0,1,1763.77,0.308907)">
                <path d="M829.707,917.152C829.707,916.773 829.418,916.465 829.062,916.465L820.498,916.465C820.142,916.465 819.854,916.773 819.854,917.152L819.854,918.528C819.854,918.907 820.142,919.215 820.498,919.215L829.062,919.215C829.418,919.215 829.707,918.907 829.707,918.528L829.707,917.152Z" style="fill:rgb(114,78,68);"/>
            </g>
        </g>
        <path id="rightleg" d="M830.341,863.172C830.341,861.416 828.916,859.99 827.16,859.99L820.796,859.99C819.04,859.99 817.615,861.416 817.615,863.172L817.615,890.663C817.615,892.419 819.04,893.844 820.796,893.844L827.16,893.844C828.916,893.844 830.341,892.419 830.341,890.663L830.341,863.172Z" style="fill:rgb(87,47,35);"/>
        <g id="leftarm" transform="matrix(0.00907952,0.999959,-1.00868,0.00900103,1613.7,8.52186)">
            <path id="_arm" d="M792.186,841.058C792.118,839.757 791.437,838.212 791.944,837.157C792.45,836.102 794.109,834.82 795.225,834.729C796.341,834.639 797.959,835.845 798.637,836.614C799.257,837.316 799.26,838.409 799.296,839.344C799.375,841.424 799.284,846.299 799.114,849.094C798.97,851.446 798.526,854.392 798.272,856.114C798.107,857.23 797.932,858.387 797.587,859.427C797.248,860.451 796.868,862.26 796.204,862.354C795.54,862.448 794.055,861.072 793.604,859.992C793.042,858.646 792.977,856.197 792.834,854.282C792.597,851.127 792.334,843.912 792.186,841.058Z" style="fill:rgb(250,167,111);"/>
            <path d="M793.267,866.987C792.764,866.737 792.997,865.772 792.948,865.331C792.911,865.004 793.183,864.514 792.97,864.342C792.757,864.17 791.955,864.392 791.671,864.299C791.463,864.23 791.252,864.001 791.266,863.783C791.285,863.503 791.68,863.032 791.782,862.621C791.94,861.987 791.991,860.675 792.213,859.976C792.394,859.407 792.719,858.875 793.116,858.428C793.6,857.883 794.302,856.85 795.116,856.709C795.93,856.568 797.402,857.113 798.001,857.582C798.543,858.005 798.564,858.867 798.712,859.52C798.858,860.166 798.877,860.838 798.884,861.501C798.892,862.221 798.778,863.073 798.757,863.844C798.737,864.603 798.865,865.608 798.758,866.123C798.689,866.459 798.449,866.833 798.119,866.931C797.679,867.062 796.785,866.901 796.117,866.909C795.309,866.918 793.795,867.25 793.267,866.987Z" style="fill:rgb(251,178,128);"/>
        </g>
        <g id="leftshoulder" transform="matrix(0.233078,0.972939,-0.981423,0.231063,1412.48,-155.67)">
            <path d="M799.473,837.823C800.943,836.484 800.558,831.796 801.489,828.888C802.448,825.89 804.246,822.599 805.231,819.832C806.108,817.367 806.888,814.484 807.396,812.285C807.825,810.43 808.435,807.93 808.28,806.641C808.17,805.726 807.389,804.566 806.467,804.552C804.936,804.53 800.888,805.716 799.096,806.508C797.759,807.099 796.345,807.983 795.716,809.303C795.046,810.711 795.329,813.078 795.072,814.958C794.746,817.347 794.182,821.029 793.759,823.635C793.381,825.958 792.994,828.64 792.53,830.59C792.144,832.209 790.949,834.278 790.972,835.333C790.989,836.108 791.924,836.706 792.668,836.924C794.084,837.339 798.002,839.163 799.473,837.823Z" style="fill:rgb(183,200,214);"/>
            <path d="M795.868,835.104C797.521,835.654 800.312,836.197 801.136,836.741C801.597,837.045 801.192,838.03 800.813,838.366C800.434,838.702 799.525,838.793 798.863,838.756C797.868,838.7 796.147,838.42 794.842,838.03C793.446,837.614 791.397,836.849 790.487,836.259C789.904,835.88 789.261,834.957 789.383,834.487C789.505,834.016 790.518,833.37 791.221,833.437C792.301,833.539 794.307,834.583 795.868,835.104Z" style="fill:rgb(216,226,230);"/>
        </g>
        <g id="rightarm" transform="matrix(-0.00907295,0.999959,1.00795,0.00900103,19.298,8.78284)">
            <path id="_arm1" serif:id="_arm" d="M792.186,841.058C792.118,839.757 791.437,838.212 791.944,837.157C792.45,836.102 794.109,834.82 795.225,834.729C796.341,834.639 797.959,835.845 798.637,836.614C799.257,837.316 799.26,838.409 799.296,839.344C799.375,841.424 799.284,846.299 799.114,849.094C798.97,851.446 798.526,854.392 798.272,856.114C798.107,857.23 797.932,858.387 797.587,859.427C797.248,860.451 796.868,862.26 796.204,862.354C795.54,862.448 794.055,861.072 793.604,859.992C793.042,858.646 792.977,856.197 792.834,854.282C792.597,851.127 792.334,843.912 792.186,841.058Z" style="fill:rgb(250,167,111);"/>
            <path d="M793.267,866.987C792.764,866.737 792.997,865.772 792.948,865.331C792.911,865.004 793.183,864.514 792.97,864.342C792.757,864.17 791.955,864.392 791.671,864.299C791.463,864.23 791.252,864.001 791.266,863.783C791.285,863.503 791.68,863.032 791.782,862.621C791.94,861.987 791.991,860.675 792.213,859.976C792.394,859.407 792.719,858.875 793.116,858.428C793.6,857.883 794.302,856.85 795.116,856.709C795.93,856.568 797.402,857.113 798.001,857.582C798.543,858.005 798.564,858.867 798.712,859.52C798.858,860.166 798.877,860.838 798.884,861.501C798.892,862.221 798.778,863.073 798.757,863.844C798.737,864.603 798.865,865.608 798.758,866.123C798.689,866.459 798.449,866.833 798.119,866.931C797.679,867.062 796.785,866.901 796.117,866.909C795.309,866.918 793.795,867.25 793.267,866.987Z" style="fill:rgb(251,178,128);"/>
        </g>
        <g id="rightshoulder" transform="matrix(-0.232909,0.972939,0.980713,0.231063,220.372,-155.409)">
            <path d="M799.473,837.823C800.943,836.484 800.558,831.796 801.489,828.888C802.448,825.89 804.246,822.599 805.231,819.832C806.108,817.367 806.888,814.484 807.396,812.285C807.825,810.43 808.435,807.93 808.28,806.641C808.17,805.726 807.389,804.566 806.467,804.552C804.936,804.53 800.888,805.716 799.096,806.508C797.759,807.099 796.345,807.983 795.716,809.303C795.046,810.711 795.329,813.078 795.072,814.958C794.746,817.347 794.182,821.029 793.759,823.635C793.381,825.958 792.994,828.64 792.53,830.59C792.144,832.209 790.949,834.278 790.972,835.333C790.989,836.108 791.924,836.706 792.668,836.924C794.084,837.339 798.002,839.163 799.473,837.823Z" style="fill:rgb(183,200,214);"/>
            <path d="M795.868,835.104C797.521,835.654 800.312,836.197 801.136,836.741C801.597,837.045 801.192,838.03 800.813,838.366C800.434,838.702 799.525,838.793 798.863,838.756C797.868,838.7 796.147,838.42 794.842,838.03C793.446,837.614 791.397,836.849 790.487,836.259C789.904,835.88 789.261,834.957 789.383,834.487C789.505,834.016 790.518,833.37 791.221,833.437C792.301,833.539 794.307,834.583 795.868,835.104Z" style="fill:rgb(216,226,230);"/>
        </g>
        <g id="body2" serif:id="body">
            <g>
                <path d="M818.443,845.042C815.968,845.507 813.174,843.758 810.905,842.587C808.652,841.425 806.208,839.735 804.825,838.017C803.54,836.421 802.903,834.311 802.607,832.283C802.26,829.909 802.811,826.61 802.747,823.774C802.667,820.255 802.134,813.965 802.128,811.17C802.125,809.768 801.913,808.114 802.71,807.003C803.507,805.893 805.317,804.849 806.909,804.507C809.298,803.993 813.773,803.866 817.043,803.92C820.219,803.972 824.182,804.139 826.528,804.828C828.325,805.356 830.681,806.239 831.124,808.058C831.896,811.225 831.235,819.65 831.16,823.83C831.104,826.938 831.575,830.48 830.674,833.141C829.789,835.753 827.731,837.871 825.754,839.794C823.716,841.778 820.918,844.576 818.443,845.042Z" style="fill:rgb(183,200,214);"/>
                <g>
                    <clipPath id="_clip2">
                        <path d="M818.443,845.042C815.968,845.507 813.174,843.758 810.905,842.587C808.652,841.425 806.208,839.735 804.825,838.017C803.54,836.421 802.903,834.311 802.607,832.283C802.26,829.909 802.811,826.61 802.747,823.774C802.667,820.255 802.134,813.965 802.128,811.17C802.125,809.768 801.913,808.114 802.71,807.003C803.507,805.893 805.317,804.849 806.909,804.507C809.298,803.993 813.773,803.866 817.043,803.92C820.219,803.972 824.182,804.139 826.528,804.828C828.325,805.356 830.681,806.239 831.124,808.058C831.896,811.225 831.235,819.65 831.16,823.83C831.104,826.938 831.575,830.48 830.674,833.141C829.789,835.753 827.731,837.871 825.754,839.794C823.716,841.778 820.918,844.576 818.443,845.042Z"/>
                    </clipPath>
                    <g clip-path="url(#_clip2)">
                        <path d="M809.929,804.331L813.757,814.113L814.627,811.143L816.555,809.699L818.878,811.093L820.006,814.014L823.63,804.377L820.614,803.705L816.672,808.673L812.932,803.846L809.929,804.331Z" style="fill:rgb(217,227,232);"/>
                    </g>
                </g>
                <path d="M812.91,803.785C812.959,804.806 813.799,805.64 814.405,806.463C815.07,807.365 816.129,809.212 816.899,809.196C817.67,809.179 818.399,807.231 819.028,806.364C819.591,805.587 820.593,804.954 820.668,803.997C820.75,802.951 820.204,800.782 819.517,800.093C818.829,799.404 817.445,799.832 816.543,799.863C815.72,799.89 814.667,799.672 814.107,800.276C813.502,800.93 812.86,802.753 812.91,803.785Z" style="fill:rgb(255,201,143);"/>
            </g>
            <path d="M805.049,804.836C804.588,808.804 805.478,823.714 805.004,828.342C804.831,830.031 802.363,830.909 802.209,832.6C801.735,837.801 801.425,854.354 802.164,859.547C802.453,861.577 804.713,863.071 806.644,863.76C808.654,864.476 811.696,863.836 814.222,863.848C817.155,863.862 821.819,864.105 824.245,863.845C825.834,863.675 827.732,863.338 828.779,862.287C829.826,861.236 830.387,859.219 830.53,857.538C830.848,853.775 830.694,843.713 830.691,839.707C830.689,837.639 830.917,835.323 830.51,833.505C830.129,831.807 828.398,830.535 828.247,828.801C827.848,824.214 828.38,809.959 828.114,805.984C828.074,805.388 827.182,804.97 826.649,804.953C826.117,804.937 824.96,805.231 824.919,805.885C824.676,809.724 825.244,824.184 825.193,827.985C825.189,828.29 824.921,828.688 824.616,828.695C821.888,828.764 811.558,828.619 808.823,828.398C808.423,828.365 808.212,827.768 808.202,827.367C808.1,823.6 808.287,809.599 808.215,805.794C808.207,805.35 808.197,804.667 807.772,804.538C807.244,804.379 805.155,803.929 805.049,804.836Z" style="fill:rgb(87,47,35);"/>
            <g>
                <clipPath id="_clip3">
                    <path d="M805.049,804.836C804.588,808.804 805.478,823.714 805.004,828.342C804.831,830.031 802.363,830.909 802.209,832.6C801.735,837.801 801.425,854.354 802.164,859.547C802.453,861.577 804.713,863.071 806.644,863.76C808.654,864.476 811.696,863.836 814.222,863.848C817.155,863.862 821.819,864.105 824.245,863.845C825.834,863.675 827.732,863.338 828.779,862.287C829.826,861.236 830.387,859.219 830.53,857.538C830.848,853.775 830.694,843.713 830.691,839.707C830.689,837.639 830.917,835.323 830.51,833.505C830.129,831.807 828.398,830.535 828.247,828.801C827.848,824.214 828.38,809.959 828.114,805.984C828.074,805.388 827.182,804.97 826.649,804.953C826.117,804.937 824.96,805.231 824.919,805.885C824.676,809.724 825.244,824.184 825.193,827.985C825.189,828.29 824.921,828.688 824.616,828.695C821.888,828.764 811.558,828.619 808.823,828.398C808.423,828.365 808.212,827.768 808.202,827.367C808.1,823.6 808.287,809.599 808.215,805.794C808.207,805.35 808.197,804.667 807.772,804.538C807.244,804.379 805.155,803.929 805.049,804.836Z"/>
                </clipPath>
                <g clip-path="url(#_clip3)">
                    <path d="M824.695,832.385C824.695,831.466 823.949,830.721 823.031,830.721L809.845,830.721C808.926,830.721 808.181,831.466 808.181,832.385L808.181,835.713C808.181,836.631 808.926,837.377 809.845,837.377L823.031,837.377C823.949,837.377 824.695,836.631 824.695,835.713L824.695,832.385Z" style="fill:rgb(145,105,93);"/>
                </g>
            </g>
        </g>
    </g>
    <g id="watercan" transform="matrix(1,0,0,1,-112.521,4.17708)">
        <path d="M806.038,873.42C806.038,870.832 803.938,868.731 801.35,868.731L791.973,868.731C789.385,868.731 787.284,870.832 787.284,873.42L787.284,888.797C787.284,891.385 789.385,893.486 791.973,893.486L801.35,893.486C803.938,893.486 806.038,891.385 806.038,888.797L806.038,873.42Z" style="fill:rgb(0,129,200);"/>
        <g transform="matrix(0.834392,0,0,0.834392,130.868,147.23)">
            <path d="M775.619,870.325L788.861,889.026L790.228,887.804L775.719,869.191L775.619,870.325Z" style="fill:rgb(0,129,200);stroke:rgb(0,129,200);stroke-width:1.2px;"/>
            <path d="M776.858,869.892L778.202,869.094L779.504,866.784L779.005,865.356L770.968,870.804L771.641,871.923L773.573,871.713L775.505,870.873L776.858,869.892Z" style="fill:rgb(0,129,200);stroke:rgb(0,129,200);stroke-width:1.2px;"/>
        </g>
        <path d="M796.68,865.167C799.661,865.167 802.082,866.6 802.082,868.366C802.082,870.131 799.661,871.564 796.68,871.564C793.699,871.564 791.279,870.131 791.279,868.366C791.279,866.6 793.699,865.167 796.68,865.167ZM796.68,865.769C799.1,865.769 801.065,866.933 801.065,868.366C801.065,869.799 799.1,870.962 796.68,870.962C794.261,870.962 792.296,869.799 792.296,868.366C792.296,866.933 794.261,865.769 796.68,865.769Z" style="fill:rgb(0,129,200);"/>
        <g transform="matrix(0.0323855,1.53787,-1.26562,0.0266525,1878.19,-367.78)">
            <path d="M796.68,865.167C799.661,865.167 802.082,866.6 802.082,868.366C802.082,870.131 799.661,871.564 796.68,871.564C793.699,871.564 791.279,870.131 791.279,868.366C791.279,866.6 793.699,865.167 796.68,865.167ZM796.68,865.971C798.912,865.971 800.724,867.044 800.724,868.366C800.724,869.687 798.912,870.76 796.68,870.76C794.449,870.76 792.637,869.687 792.637,868.366C792.637,867.044 794.449,865.971 796.68,865.971Z" style="fill:rgb(0,129,200);"/>
        </g>
    </g>
    <g id="eggplant">
        <path d="M235.623,883.541C236.069,885.367 236.76,889.221 237.803,891.908C238.89,894.708 240.536,898.093 242.146,900.344C243.57,902.336 245.438,904.255 247.46,905.414C249.483,906.573 252.128,907.28 254.281,907.299C256.397,907.317 258.693,906.423 260.376,905.526C261.962,904.681 263.993,903.317 264.38,901.917C264.766,900.517 263.626,898.537 262.695,897.126C261.764,895.715 260.413,894.209 258.795,893.451C257.159,892.686 254.777,893.152 252.88,892.533C250.936,891.898 248.659,891.151 247.133,889.645C245.504,888.037 243.963,885.365 243.103,882.886C242.215,880.327 242.607,876.171 241.806,874.29C241.228,872.933 239.433,871.852 238.296,871.599C237.158,871.345 235.357,871.659 234.981,872.769C234.453,874.328 235.019,879.156 235.126,880.951C235.179,881.829 235.414,882.687 235.623,883.541Z" style="fill:rgb(158,47,156);"/>
        <path d="M237.725,877.192C237.624,876.056 237.8,874.676 237.465,873.78C237.156,872.956 236.219,871.716 235.71,871.811C235.2,871.905 234.616,873.419 234.41,874.346C234.139,875.559 234.117,878.128 234.087,879.091C234.076,879.437 234.149,879.783 234.229,880.12C234.376,880.736 234.718,881.897 234.967,882.785C235.404,884.345 235.98,887.333 236.853,889.482C238.092,892.531 240.659,898.354 242.398,901.079C243.619,902.994 245.253,904.811 247.282,905.832C249.372,906.883 252.415,907.53 254.937,907.389C257.458,907.248 260.817,905.976 262.412,904.986C263.576,904.264 264.717,901.751 264.507,901.45C264.298,901.149 262.39,902.951 261.153,903.18C259.271,903.528 255.76,904.266 253.213,903.537C250.586,902.786 247.451,900.802 245.395,898.671C243.338,896.539 242.044,893.178 240.874,890.749C239.847,888.616 238.902,886.36 238.377,884.1C237.854,881.847 237.877,878.912 237.725,877.192Z" style="fill:rgb(128,46,129);"/>
        <path d="M238.098,872.788C238.568,872.435 238.093,870.631 238.756,869.9C239.511,869.069 242.514,868.151 242.628,867.8C242.743,867.45 240.342,867.233 239.444,867.799C238.328,868.502 236.159,871.187 235.935,872.019C235.735,872.757 237.627,873.141 238.098,872.788Z" style="fill:rgb(86,119,53);"/>
        <path d="M234.139,880.568C234.576,880.908 235.561,877.028 236.239,876.827C236.917,876.626 237.562,878.8 238.208,879.362C238.731,879.818 239.619,880.552 240.113,880.2C240.606,879.847 240.763,877.295 241.168,877.246C241.574,877.198 242.174,879.97 242.546,879.91C242.919,879.849 243.525,877.925 243.405,876.883C243.276,875.772 242.676,874.169 241.777,873.24C240.878,872.31 239.158,871.498 238.01,871.305C236.953,871.128 235.623,871.505 234.89,872.085C234.158,872.666 233.703,873.796 233.615,874.788C233.489,876.202 233.702,880.228 234.139,880.568Z" style="fill:rgb(112,152,71);"/>
    </g>
    <g id="carrot">
        <path d="M272.326,884.712C271.989,880.85 271.457,875.422 271.246,873.133C271.181,872.417 270.963,871.534 271.062,870.983C271.145,870.526 271.497,870.138 271.842,869.827C272.205,869.5 272.73,869.193 273.24,869.021C273.803,868.831 274.553,868.739 275.221,868.688C275.954,868.633 276.959,868.497 277.64,868.687C278.289,868.869 278.916,869.402 279.306,869.832C279.661,870.224 279.907,870.756 279.98,871.268C280.053,871.78 279.793,872.355 279.746,872.904C279.559,875.111 279.195,880.643 278.857,884.507C278.388,889.879 277.361,901.495 276.93,905.137C276.875,905.597 276.497,906.008 276.267,906.358C276.059,906.675 275.832,907.27 275.548,907.237C275.264,907.204 274.817,906.575 274.564,906.159C274.307,905.738 274.059,905.223 274.005,904.707C273.632,901.133 272.786,889.974 272.326,884.712Z" style="fill:rgb(247,160,0);"/>
        <path d="M277.786,886.601C277.786,886.447 277.661,886.322 277.507,886.322L274.678,886.322C274.524,886.322 274.399,886.447 274.399,886.601L274.399,887.16C274.399,887.314 274.524,887.439 274.678,887.439L277.507,887.439C277.661,887.439 277.786,887.314 277.786,887.16L277.786,886.601Z" style="fill:rgb(235,137,0);"/>
        <g transform="matrix(1,0,0,1,-1.95277,-4.58214)">
            <path d="M277.786,886.601C277.786,886.447 277.661,886.322 277.507,886.322L274.678,886.322C274.524,886.322 274.399,886.447 274.399,886.601L274.399,887.16C274.399,887.314 274.524,887.439 274.678,887.439L277.507,887.439C277.661,887.439 277.786,887.314 277.786,887.16L277.786,886.601Z" style="fill:rgb(235,137,0);"/>
        </g>
        <g transform="matrix(1.47339,0,0,1.0243,-130.4,-31.1027)">
            <path d="M277.786,886.601C277.786,886.447 277.699,886.322 277.592,886.322L274.593,886.322C274.486,886.322 274.399,886.447 274.399,886.601L274.399,887.16C274.399,887.314 274.486,887.439 274.593,887.439L277.592,887.439C277.699,887.439 277.786,887.314 277.786,887.16L277.786,886.601Z" style="fill:rgb(235,137,0);"/>
        </g>
        <g transform="matrix(0.551927,0,0,0.618753,122.286,344.057)">
            <path d="M277.786,886.601C277.786,886.447 277.646,886.322 277.473,886.322L274.712,886.322C274.539,886.322 274.399,886.447 274.399,886.601L274.399,887.16C274.399,887.314 274.539,887.439 274.712,887.439L277.473,887.439C277.646,887.439 277.786,887.314 277.786,887.16L277.786,886.601Z" style="fill:rgb(235,137,0);"/>
        </g>
        <g transform="matrix(0.571429,0,0,0.643741,118.559,325.419)">
            <path d="M277.786,886.601C277.786,886.447 277.645,886.322 277.471,886.322L274.714,886.322C274.54,886.322 274.399,886.447 274.399,886.601L274.399,887.16C274.399,887.314 274.54,887.439 274.714,887.439L277.471,887.439C277.645,887.439 277.786,887.314 277.786,887.16L277.786,886.601Z" style="fill:rgb(235,137,0);"/>
        </g>
        <g transform="matrix(0.530159,0,0,0.621962,129.027,349.38)">
            <path d="M277.786,886.601C277.786,886.447 277.639,886.322 277.458,886.322L274.727,886.322C274.546,886.322 274.399,886.447 274.399,886.601L274.399,887.16C274.399,887.314 274.546,887.439 274.727,887.439L277.458,887.439C277.639,887.439 277.786,887.314 277.786,887.16L277.786,886.601Z" style="fill:rgb(235,137,0);"/>
        </g>
        <g transform="matrix(1.26984,0,0,0.835626,-75.965,131.842)">
            <path d="M277.786,886.601C277.786,886.447 277.704,886.322 277.602,886.322L274.583,886.322C274.481,886.322 274.399,886.447 274.399,886.601L274.399,887.16C274.399,887.314 274.481,887.439 274.583,887.439L277.602,887.439C277.704,887.439 277.786,887.314 277.786,887.16L277.786,886.601Z" style="fill:rgb(235,137,0);"/>
        </g>
        <path d="M273.746,869.568C273.027,868.887 271.484,866.491 270.898,865.704C270.682,865.413 270.316,865.135 270.233,864.844C270.15,864.555 270.144,864.083 270.396,863.957C270.647,863.831 271.412,863.78 271.742,864.088C272.297,864.607 273.726,867.069 273.726,867.069L273.545,862.234C273.545,862.234 273.619,861.482 273.775,861.278C273.927,861.077 274.29,860.962 274.479,861.006C274.668,861.049 274.882,861.311 274.91,861.537C275.02,862.408 275.137,866.231 275.137,866.231L276.615,862.411C276.615,862.411 277.05,861.842 277.256,861.766C277.451,861.693 277.806,861.749 277.851,861.952C277.906,862.2 277.676,862.822 277.585,863.256C277.426,864.02 276.691,866.163 276.895,866.531C277.098,866.899 278.806,865.465 278.806,865.465C278.806,865.465 279.306,865.479 279.498,865.617C279.694,865.758 280.132,866.069 279.983,866.309C279.627,866.886 277.357,869.078 277.357,869.078L276.194,869.467L275.209,869.786C275.209,869.786 274.104,869.907 273.746,869.568Z" style="fill:rgb(139,197,45);"/>
    </g>
    <g id="broccoli">
        <path d="M299.581,906.814L305.41,907.295L304.923,901.307L305.864,889.405L307.177,884.237L302.139,882.758L296.777,883.882L297.605,888.432L298.921,895.014L299.256,901.107L299.581,906.814Z" style="fill:rgb(59,188,72);"/>
        <path d="M311.606,885.752C311.606,885.752 314.09,884.943 315.039,884.099C315.994,883.249 316.993,881.857 317.336,880.653C317.678,879.45 317.833,877.901 317.093,876.88C316.281,875.759 313.22,875.171 312.462,873.927C311.705,872.683 313.386,870.664 312.548,869.415C311.601,868.004 308.214,865.807 306.779,865.46C305.677,865.193 304.79,866.692 303.937,867.328C303.137,867.926 302.651,869.254 301.663,869.278C300.674,869.303 299.266,867.585 298.007,867.474C296.747,867.362 294.946,867.934 294.107,868.611C293.293,869.268 293.815,870.919 292.971,871.536C292.118,872.159 290.127,871.779 288.989,872.347C287.852,872.916 286.768,873.918 286.146,874.947C285.523,875.976 285.143,877.332 285.254,878.522C285.366,879.713 285.965,881.225 286.813,882.091C287.661,882.957 289.452,883.066 290.34,883.716C291.122,884.287 291.42,885.349 292.145,885.991C293.047,886.79 294.565,888.131 295.754,888.51C296.877,888.867 298.114,888.421 299.282,888.264C301.018,888.029 304.504,887.652 306.171,887.103C307.367,886.71 308.383,885.196 309.289,884.971C310.08,884.774 311.606,885.752 311.606,885.752Z" style="fill:rgb(150,204,59);"/>
    </g>
    <g id="peapod">
        <path d="M325.996,907.085C326.879,907.437 333.317,904.966 335.831,902.738C338.345,900.509 339.859,896.973 341.081,893.715C342.311,890.434 343.305,886.676 343.214,883.053C343.123,879.391 341.549,875.077 340.533,871.744C339.626,868.767 338.04,864.694 337.121,863.053C336.731,862.355 335.425,861.587 335.022,861.893C334.62,862.2 334.603,863.892 334.705,864.892C334.915,866.95 335.922,871.433 336.28,874.236C336.597,876.715 337.053,879.22 336.855,881.711C336.653,884.257 335.732,887.168 335.069,889.511C334.467,891.638 333.631,893.914 332.875,895.767C332.196,897.433 331.468,899.092 330.534,900.629C329.387,902.515 325.113,906.734 325.996,907.085Z" style="fill:rgb(129,183,57);"/>
        <path d="M316.451,901.743C316.677,900.481 322.717,896.019 325.234,893.053C327.624,890.236 330.115,887.037 331.55,883.947C332.914,881.013 333.285,877.209 333.847,874.515C334.311,872.291 334.959,869.767 334.921,867.784C334.888,866.008 333.429,863.846 333.623,862.616C333.795,861.526 335.428,860.201 336.084,860.401C336.74,860.601 337.121,862.655 337.561,863.814C338.258,865.654 340.098,868.749 340.271,871.442C340.467,874.474 339.422,878.945 338.732,882.005C338.13,884.679 337.409,887.38 336.132,889.805C334.834,892.273 332.982,895.011 330.939,896.814C328.934,898.585 326.292,899.804 323.878,900.625C321.508,901.432 316.225,903.005 316.451,901.743Z" style="fill:rgb(148,200,59);"/>
        <g>
            <clipPath id="_clip4">
                <path d="M316.451,901.743C316.677,900.481 322.717,896.019 325.234,893.053C327.624,890.236 330.115,887.037 331.55,883.947C332.914,881.013 333.285,877.209 333.847,874.515C334.311,872.291 334.959,869.767 334.921,867.784C334.888,866.008 333.429,863.846 333.623,862.616C333.795,861.526 335.428,860.201 336.084,860.401C336.74,860.601 337.121,862.655 337.561,863.814C338.258,865.654 340.098,868.749 340.271,871.442C340.467,874.474 339.422,878.945 338.732,882.005C338.13,884.679 337.409,887.38 336.132,889.805C334.834,892.273 332.982,895.011 330.939,896.814C328.934,898.585 326.292,899.804 323.878,900.625C321.508,901.432 316.225,903.005 316.451,901.743Z"/>
            </clipPath>
            <g clip-path="url(#_clip4)">
                <g transform="matrix(0.751431,0.134679,-0.134679,0.751431,205.512,171.872)">
                    <ellipse cx="329.9" cy="892.633" rx="2.832" ry="2.681" style="fill:rgb(132,183,65);"/>
                </g>
                <g transform="matrix(0.751431,0.134679,-0.134679,0.751431,202.324,177.012)">
                    <ellipse cx="329.9" cy="892.633" rx="2.832" ry="2.681" style="fill:rgb(132,183,65);"/>
                </g>
                <g transform="matrix(0.751431,0.134679,-0.134679,0.751431,198.211,181.233)">
                    <ellipse cx="329.9" cy="892.633" rx="2.832" ry="2.681" style="fill:rgb(132,183,65);"/>
                </g>
                <g transform="matrix(0.751431,0.134679,-0.134679,0.751431,207.579,166.674)">
                    <ellipse cx="329.9" cy="892.633" rx="2.832" ry="2.681" style="fill:rgb(132,183,65);"/>
                </g>
                <g transform="matrix(0.751431,0.134679,-0.134679,0.751431,209.373,159.508)">
                    <ellipse cx="329.9" cy="892.633" rx="2.832" ry="2.681" style="fill:rgb(132,183,65);"/>
                </g>
            </g>
        </g>
    </g>
    <g id="apple">
        <path d="M361.061,889.719C361.213,887.504 361.929,883.909 362.824,881.96C363.567,880.342 365.012,878.543 366.433,878.022C367.854,877.501 369.716,878.537 371.35,878.835C373.127,879.158 375.19,880.089 377.09,879.961C378.99,879.834 381.001,878.359 382.75,878.071C384.343,877.808 386.103,877.602 387.589,878.232C389.12,878.882 391.047,880.29 391.936,881.969C392.826,883.648 392.897,886.169 392.925,888.307C392.955,890.568 392.764,893.466 392.114,895.538C391.511,897.461 390.382,899.245 389.027,900.738C387.564,902.349 385.289,904.15 383.339,905.207C381.494,906.206 379.426,907.104 377.327,907.075C375.079,907.044 372.03,906.292 369.853,905.021C367.675,903.749 365.586,901.077 364.263,899.449C363.252,898.204 362.418,896.772 361.917,895.249C361.383,893.627 360.934,891.58 361.061,889.719Z" style="fill:rgb(244,47,45);"/>
        <path d="M377.649,906.248C378.15,908.241 381.854,905.972 383.699,905.068C385.616,904.129 387.762,902.507 389.15,900.616C390.685,898.525 392.355,895.351 392.909,892.524C393.463,889.697 393.022,885.874 392.472,883.655C392.049,881.945 391.091,880.169 389.613,879.211C388.089,878.223 385.321,877.408 383.332,877.726C381.343,878.044 378.109,878.963 377.679,881.118C376.732,885.872 376.646,902.257 377.649,906.248Z" style="fill:rgb(223,34,45);"/>
        <path d="M377.303,878.963C376.608,879.347 375.187,879.001 374.419,878.605C373.65,878.208 373.154,877.339 372.693,876.582C372.143,875.679 371.343,874.286 371.122,873.189C370.911,872.145 370.832,870.512 371.366,870.003C371.9,869.493 373.416,869.749 374.326,870.133C375.342,870.561 376.752,871.545 377.462,872.573C378.172,873.601 378.612,875.236 378.585,876.301C378.561,877.285 377.997,878.579 377.303,878.963Z" style="fill:rgb(0,158,75);"/>
        <path d="M377.433,878.836C378.151,879.438 378.436,877.166 378.508,876.238C378.58,875.309 378.361,874.15 377.866,873.265C377.359,872.358 376.508,871.274 375.464,870.796C374.401,870.31 371.169,869.05 371.487,870.346C371.815,871.686 376.263,877.854 377.433,878.836Z" style="fill:rgb(0,113,52);"/>
        <path d="M377.352,880.664C377.312,879.542 377.23,877.297 377.761,875.737C378.336,874.042 379.983,871.677 380.807,870.495" style="fill:none;stroke:rgb(155,84,46);stroke-width:1px;"/>
    </g>
</svg>
